<?xml version="1.0" encoding="UTF-8"?>
<svg id="Layer_1" data-name="Layer 1" xmlns="http://www.w3.org/2000/svg" viewBox="0 0 30 30">
  <defs>
    <style>
      .cls-1 {
        fill: #fff;
        fill-rule: evenodd;
      }
    </style>
  </defs>
  <path class="cls-1" d="M7.51,9.38h14.99c.34,0,.62.28.62.62v.71l-8.12,4.64-8.12-4.64v-.71c0-.34.28-.62.62-.62ZM6.88,12.88v7.12c0,.34.28.62.62.62h14.99c.34,0,.62-.28.62-.62v-7.12l-7.65,4.37-.46.27-.46-.27-7.65-4.37ZM5.01,10c0-1.38,1.12-2.5,2.5-2.5h14.99c1.38,0,2.5,1.12,2.5,2.5v9.99c0,1.38-1.12,2.5-2.5,2.5H7.51c-1.38,0-2.5-1.12-2.5-2.5v-9.99Z"/>
</svg>