<?xml version="1.0" encoding="UTF-8"?>
<svg id="icon" xmlns="http://www.w3.org/2000/svg" viewBox="0 0 50 50"><metadata><c2pa:manifest xmlns:c2pa="http://c2pa.org/manifest">AAA0RGp1bWIAAAAeanVtZGMycGEAEQAQgAAAqgA4m3EDYzJwYQAAADQeanVtYgAAAEdqdW1kYzJtYQARABCAAACqADibcQN1cm46dXVpZDo4ZmEyZTcwYS1iODgwLTQxYWEtYjkzZC0wYzBjZjgyZjdlNjEAAAABtGp1bWIAAAApanVtZGMyYXMAEQAQgAAAqgA4m3EDYzJwYS5hc3NlcnRpb25zAAAAANdqdW1iAAAAJmp1bWRjYm9yABEAEIAAAKoAOJtxA2MycGEuYWN0aW9ucwAAAACpY2JvcqFnYWN0aW9uc4GjZmFjdGlvbmtjMnBhLmVkaXRlZG1zb2Z0d2FyZUFnZW50bUFkb2JlIEZpcmVmbHlxZGlnaXRhbFNvdXJjZVR5cGV4U2h0dHA6Ly9jdi5pcHRjLm9yZy9uZXdzY29kZXMvZGlnaXRhbHNvdXJjZXR5cGUvY29tcG9zaXRlV2l0aFRyYWluZWRBbGdvcml0aG1pY01lZGlhAAAArGp1bWIAAAAoanVtZGNib3IAEQAQgAAAqgA4m3EDYzJwYS5oYXNoLmRhdGEAAAAAfGNib3KlamV4Y2x1c2lvbnOBomVzdGFydBisZmxlbmd0aBlFsGRuYW1lbmp1bWJmIG1hbmlmZXN0Y2FsZ2ZzaGEyNTZkaGFzaFggldfwmpMXFEU9NWrhvxkyl+EKeNVrSxCbVuR92r8H+RhjcGFkSQAAAAAAAAAAAAAAAgtqdW1iAAAAJGp1bWRjMmNsABEAEIAAAKoAOJtxA2MycGEuY2xhaW0AAAAB32Nib3KoaGRjOnRpdGxlb0dlbmVyYXRlZCBJbWFnZWlkYzpmb3JtYXRtaW1hZ2Uvc3ZnK3htbGppbnN0YW5jZUlEeCx4bXA6aWlkOmMxZTljZGU4LTBlNzMtNDI1Yi05OTRjLTg4YTNiMTVjMmVlMm9jbGFpbV9nZW5lcmF0b3J4NkFkb2JlX0lsbHVzdHJhdG9yLzI5LjEgYWRvYmVfYzJwYS8wLjcuNiBjMnBhLXJzLzAuMjUuMnRjbGFpbV9nZW5lcmF0b3JfaW5mb4G/ZG5hbWVxQWRvYmUgSWxsdXN0cmF0b3JndmVyc2lvbmQyOS4x/2lzaWduYXR1cmV4GXNlbGYjanVtYmY9YzJwYS5zaWduYXR1cmVqYXNzZXJ0aW9uc4KiY3VybHgnc2VsZiNqdW1iZj1jMnBhLmFzc2VydGlvbnMvYzJwYS5hY3Rpb25zZGhhc2hYIEppwb3/qN5BMHi+JO3M+DE6wdFklTRWcaANawazN9SvomN1cmx4KXNlbGYjanVtYmY9YzJwYS5hc3NlcnRpb25zL2MycGEuaGFzaC5kYXRhZGhhc2hYIAwhaPDK6T1YJ4P37HiiUfqntrrovRjOZnyox7JuFDVJY2FsZ2ZzaGEyNTYAADAQanVtYgAAAChqdW1kYzJjcwARABCAAACqADibcQNjMnBhLnNpZ25hdHVyZQAAAC/gY2JvctKEWQzvogE4JBghglkGPTCCBjkwggQhoAMCAQICEBWN/yesI9K4JUtOYzceHZ4wDQYJKoZIhvcNAQELBQAwdTELMAkGA1UEBhMCVVMxIzAhBgNVBAoTGkFkb2JlIFN5c3RlbXMgSW5jb3Jwb3JhdGVkMR0wGwYDVQQLExRBZG9iZSBUcnVzdCBTZXJ2aWNlczEiMCAGA1UEAxMZQWRvYmUgUHJvZHVjdCBTZXJ2aWNlcyBHMzAeFw0yNDEwMTUwMDAwMDBaFw0yNTEwMTUyMzU5NTlaMIGrMRMwEQYDVQQDDApBZG9iZSBDMlBBMSgwJgYDVQQLDB9Db250ZW50IEF1dGhlbnRpY2l0eSBJbml0aWF0aXZlMRMwEQYDVQQKDApBZG9iZSBJbmMuMREwDwYDVQQHDAhTYW4gSm9zZTETMBEGA1UECAwKQ2FsaWZvcm5pYTELMAkGA1UEBhMCVVMxIDAeBgkqhkiG9w0BCQEWEWNhaS1vcHNAYWRvYmUuY29tMIIBIjANBgkqhkiG9w0BAQEFAAOCAQ8AMIIBCgKCAQEAwxDBgdB9PXLpMXPw5oNgYkFWDPP1aSfth9TZPINOtOQlhp1v4h+hMxZWFjkZ3RJRuoSBrsSSYBaEfiDMKisi/sOxuFHKBV//l1rv3SrjrixANXIlqjGdIYydaMaFa/5ovFz/m4+SUz0ccYzqw+vSAzuRySGnpgm8Gmj+SEJcL/GIHzqU9bUy3NsizY2oY28yj32rbkOqeADSM51OqIJKloEBFFexzMunzpU+K2sLqheoR8FJMaR0fGXa/gqRzhkiBFhwUhLPS9s6+TCnz09UZMlXbdG/iFKj3UPFUDjqh0wtFgcz24DrUlaWeiltKHouymBHuirzvmOG0VtSPepxOQIDAQABo4IBjDCCAYgwDAYDVR0TAQH/BAIwADAOBgNVHQ8BAf8EBAMCB4AwHgYDVR0lBBcwFQYJKoZIhvcvAQEMBggrBgEFBQcDBDCBjgYDVR0gBIGGMIGDMIGABgkqhkiG9y8BAgMwczBxBggrBgEFBQcCAjBlDGNZb3UgYXJlIG5vdCBwZXJtaXR0ZWQgdG8gdXNlIHRoaXMgTGljZW5zZSBDZXJ0aWZpY2F0ZSBleGNlcHQgYXMgcGVybWl0dGVkIGJ5IHRoZSBsaWNlbnNlIGFncmVlbWVudC4wXQYDVR0fBFYwVDBSoFCgToZMaHR0cDovL3BraS1jcmwuc3ltYXV0aC5jb20vY2FfN2E1YzNhMGM3MzExNzQwNmFkZDE5MzEyYmMxYmMyM2YvTGF0ZXN0Q1JMLmNybDA3BggrBgEFBQcBAQQrMCkwJwYIKwYBBQUHMAGGG2h0dHA6Ly9wa2ktb2NzcC5zeW1hdXRoLmNvbTAfBgNVHSMEGDAWgBRXKXoyTcz+5DVOwB8kc85zU6vfajANBgkqhkiG9w0BAQsFAAOCAgEAqrl6FLQ+c9LYaf0igyTgErNL9XmmieiT3ohKFevJ3BN7kWkZD1znbVw3XnX5tgQaKq+AiSCldNxYEKqU+Rq9Lr26GGglBSA0s/Ds2kw+2LlnTmojAHCH3CvVRbhGHHrashmnfgwmF1TSkaWk7NxEhbt9wQoiEMkLSQeM4S4Cu+176FzEdy+zzkDkRWqeSOQO/qG2WRto/vIq30ECf6v6FtazJI1CWIqhBK5oJioSNbLsCVJhar3Uca9D11ujeZW4k2jPCsnzriTmFqVftd3k2SXUQg7wQcQcXfKBItWZt8ztn0IYoZzJa1x9l9dvXKAJvNsDoz4uDerS8z9rzLsEQvzL1yPbTp4+/6mTTAWsoaDtmkZgm3X+sffPX3XzMFmfzIHiYfUja5nKK2bs4P71tit/1U/FD2xdlpzZSupRqCMGz+UTeXI8IrN5ZR/+F8rSsmRAStjnggz/wDucwcDlJbY4/RKq3BrAi4LamLMIfwo/dbL55TDlIOd7HCfmSgabc1WO0Kji3LW/VZnP9VG8WiUG+WqtN1OQIAZmFUOWdXQGLag+I1OaZ1BXJDNsJiXcg2TGNBSEPo44Akfn9MzFGKyB5UurMN4NH0qlamhrhKiV0+b73Fjx330P/frxBmzx5NpAQhNKksx+F4z1S8Ay1o2TBIkkeAFbDzy8f/FxuytZBqUwggahMIIEiaADAgECAhAMqLZUe4nm0gaJdc2Lm4niMA0GCSqGSIb3DQEBCwUAMGwxCzAJBgNVBAYTAlVTMSMwIQYDVQQKExpBZG9iZSBTeXN0ZW1zIEluY29ycG9yYXRlZDEdMBsGA1UECxMUQWRvYmUgVHJ1c3QgU2VydmljZXMxGTAXBgNVBAMTEEFkb2JlIFJvb3QgQ0EgRzIwHhcNMTYxMTI5MDAwMDAwWhcNNDExMTI4MjM1OTU5WjB1MQswCQYDVQQGEwJVUzEjMCEGA1UEChMaQWRvYmUgU3lzdGVtcyBJbmNvcnBvcmF0ZWQxHTAbBgNVBAsTFEFkb2JlIFRydXN0IFNlcnZpY2VzMSIwIAYDVQQDExlBZG9iZSBQcm9kdWN0IFNlcnZpY2VzIEczMIICIjANBgkqhkiG9w0BAQEFAAOCAg8AMIICCgKCAgEAtx8uvb0Js1xIbP4Mg65sAepReCWkgD6Jp7GyiGTa9ol2gfn5HfOV/HiYjZiOz+TuHFU+DXNad86xEqgVeGVMlvIHGe/EHcKBxvEDXdlTXB5zIEkfl0/SGn7J6vTX8MNybfSi95eQDUOZ9fjCaq+PBFjS5ZfeNmzi/yR+MsA0jKKoWarSRCFFFBpUFQWfAgLyXOyxOnXQOQudjxNj6Wu0X0IB13+IH11WcKcWEWXM4j4jh6hLy29Cd3EoVG3oxcVenMF/EMgD2tXjx4NUbTNB1/g9+MR6Nw5Mhp5k/g3atNExAxhtugC+T3SDShSEJfs2quiiRUHtX3RhOcK1s1OJgT5s2s9xGy5/uxVpcAIaK2KiDJXW3xxN8nXPmk1NSVu/mxtfapr4TvSJbhrU7UA3qhQY9n4On2sbH1X1Tw+7LTek8KCA5ZDghOERPiIp/Jt893qov1bE5rJkagcVg0Wqjh89NhCaBA8VyRt3ovlGyCKdNV2UL3bn5vdFsTk7qqmp9makz1/SuVXYxIf6L6+8RXOatXWaPkmucuLE1TPOeP7S1N5JToFCs80l2D2EtxoQXGCR48K/cTUR5zV/fQ+hdIOzoo0nFn77Y8Ydd2k7/x9BE78pmoeMnw6VXYfXCuWEgj6p7jpbLoxQMoWMCVzlg72WVNhJFlSw4aD8fc6ezeECAwEAAaOCATQwggEwMBIGA1UdEwEB/wQIMAYBAf8CAQAwNQYDVR0fBC4wLDAqoCigJoYkaHR0cDovL2NybC5hZG9iZS5jb20vYWRvYmVyb290ZzIuY3JsMA4GA1UdDwEB/wQEAwIBBjAUBgNVHSUEDTALBgkqhkiG9y8BAQcwVwYDVR0gBFAwTjBMBgkqhkiG9y8BAgMwPzA9BggrBgEFBQcCARYxaHR0cHM6Ly93d3cuYWRvYmUuY29tL21pc2MvcGtpL3Byb2Rfc3ZjZV9jcHMuaHRtbDAkBgNVHREEHTAbpBkwFzEVMBMGA1UEAxMMU1lNQy00MDk2LTMzMB0GA1UdDgQWBBRXKXoyTcz+5DVOwB8kc85zU6vfajAfBgNVHSMEGDAWgBSmHOFtVCRMqI9Icr9uqYzV5Owx1DANBgkqhkiG9w0BAQsFAAOCAgEAcc7lB4ym3C3cyOA7ZV4AkoGV65UgJK+faThdyXzxuNqlTQBlOyXBGFyevlm33BsGO1mDJfozuyLyT2+7IVxWFvW5yYMV+5S1NeChMXIZnCzWNXnuiIQSdmPD82TEVCkneQpFET4NDwSxo8/ykfw6Hx8fhuKz0wjhjkWMXmK3dNZXIuYVcbynHLyJOzA+vWU3sH2T0jPtFp7FN39GZne4YG0aVMlnHhtHhxaXVCiv2RVoR4w1QtvKHQpzfPObR53Cl74iLStGVFKPwCLYRSpYRF7J6vVS/XxW4LzvN2b6VEKOcvJmN3LhpxFRl3YYzW+dwnwtbuHW6WJlmjffbLm1MxLFGlG95aCz31X8wzqYNsvb9+5AXcv8Ll69tLXmO1OtsY/3wILNUEp4VLZTE3wqm3n8hMnClZiiKyZCS7L4E0mClbx+BRSMH3eVo6jgve41/fK3FQM4QCNIkpGs7FjjLy+ptC+JyyWqcfvORrFV/GOgB5hD+G5ghJcIpeigD/lHsCRYsOa5sFdqREhwIWLmSWtNwfLZdJ3dkCc7yRpm3gal6qRfTkYpxTNxxKyvKbkaJDoxR9vtWrC3iNrQd9VvxC3TXtuzoHbqumeqgcAqefWF9u6snQ4Q9FkXzeuJArNuSvPIhgBjVtggH0w0vm/lmCQYiC/Y12GeCxfgYlL33buiZnNpZ1RzdKFpdHN0VG9rZW5zgaFjdmFsWQ45MIIONTADAgEAMIIOLAYJKoZIhvcNAQcCoIIOHTCCDhkCAQMxDzANBglghkgBZQMEAgEFADCBgQYLKoZIhvcNAQkQAQSgcgRwMG4CAQEGCWCGSAGG/WwHATAxMA0GCWCGSAFlAwQCAQUABCChy3G8fBQyeRpdIAsCdAW+8Tpq4QvoA/G182duipBteQIQRcFgj9H4ioNOCfX4H89KehgPMjAyNDExMjIwMTU3NTdaAghQaOJPhQ3JAKCCC8AwggUKMIIC8qADAgECAhAMCy/HenjPuu1lVlTBmiQDMA0GCSqGSIb3DQEBCwUAMGMxCzAJBgNVBAYTAlVTMRcwFQYDVQQKEw5EaWdpQ2VydCwgSW5jLjE7MDkGA1UEAxMyRGlnaUNlcnQgVHJ1c3RlZCBHNCBSU0E0MDk2IFNIQTI1NiBUaW1lU3RhbXBpbmcgQ0EwHhcNMjQxMTIwMDAwMDAwWhcNMzYwMjE5MjM1OTU5WjBbMQswCQYDVQQGEwJVUzERMA8GA1UEChMIRGlnaUNlcnQxOTA3BgNVBAMTMEVDQzI1Nl9TSEEyNTZfVGltZXN0YW1wX1Jlc3BvbmRlcl9BZG9iZV9OT1ZfMjAyNDBZMBMGByqGSM49AgEGCCqGSM49AwEHA0IABND8HoX4gZimKpBAvE5+qRSZ5OZJFZnPFIK3AzzayJb9JtdrOS1HIRabAhWz7w8mOFX0Lh9QnbcgZHGx/MkzyV6jggGLMIIBhzAOBgNVHQ8BAf8EBAMCB4AwDAYDVR0TAQH/BAIwADAWBgNVHSUBAf8EDDAKBggrBgEFBQcDCDAgBgNVHSAEGTAXMAgGBmeBDAEEAjALBglghkgBhv1sBwEwHwYDVR0jBBgwFoAUuhbZbU2FL3MpdpovdYxqII+eyG8wHQYDVR0OBBYEFOzRHG9856BN5DE/hwAI1K3UfTa7MFoGA1UdHwRTMFEwT6BNoEuGSWh0dHA6Ly9jcmwzLmRpZ2ljZXJ0LmNvbS9EaWdpQ2VydFRydXN0ZWRHNFJTQTQwOTZTSEEyNTZUaW1lU3RhbXBpbmdDQS5jcmwwgZAGCCsGAQUFBwEBBIGDMIGAMCQGCCsGAQUFBzABhhhodHRwOi8vb2NzcC5kaWdpY2VydC5jb20wWAYIKwYBBQUHMAKGTGh0dHA6Ly9jYWNlcnRzLmRpZ2ljZXJ0LmNvbS9EaWdpQ2VydFRydXN0ZWRHNFJTQTQwOTZTSEEyNTZUaW1lU3RhbXBpbmdDQS5jcnQwDQYJKoZIhvcNAQELBQADggIBAKLswSDyeS8tq4sjtwCPbUOCcwSuHSae0K3hzi2xb3IlBl1m/WfwTV255rJvoiJnyZhqZsiatN65UrAapRIhNlOJWG0VE/fNEP0OkWT4THg/TXQhK0f94PWWArptV9pjSC/NwhFA/cLAjOoFkATzVzlAg2M+zzVy8ks4Up39xfvM6GhC+vOI0PLXlQ1Pl+5RF7Z+KgA1CxE1g6ZVcB2DZMrs6S1gP4Qf8PyBavucdCFEky4PngY2OJmc0+dhfPoXePsG7ZpWWKu9AYACytbbsuqGD2Sxbn5ov6D3+XKpGgytYtLLgoNBrO08H48qyR5w7VHt1slvDtQEVWX4ZsZpRzjHoe9Us00vmEeOIut/0DjPF7nZ71mqlJTuQO7t2xFe+b64ssxeMcVLH+PSy0hzGdAfA4vgDlFG5QfVfDXDPYKIa8gc1yhiuSp+RvpOwolTue0Oo0oUpnfj2wEStN1fBWgh3jNL9xX8Dms7UrDlo07/NRMK1CRtwyDzxcZaoiZpiYgeEi8doTWdF09YJrRCGvG+Kh4/jmnj/Op38mtVs2ygS4QFJEg8Hf5WItqgWWKZlFR4/PApi/JOt3qDvaZW0Xg+ttu/LWSoJSaxkMwWqffcNHQ3xDOqTOKvdu583IjmT3lGrc1dxt81gPH2pnyCMK7g0e1LEB0kqzDNv2CLqPIVMIIGrjCCBJagAwIBAgIQBzY3tyRUfNhHrP0oZipeWzANBgkqhkiG9w0BAQsFADBiMQswCQYDVQQGEwJVUzEVMBMGA1UEChMMRGlnaUNlcnQgSW5jMRkwFwYDVQQLExB3d3cuZGlnaWNlcnQuY29tMSEwHwYDVQQDExhEaWdpQ2VydCBUcnVzdGVkIFJvb3QgRzQwHhcNMjIwMzIzMDAwMDAwWhcNMzcwMzIyMjM1OTU5WjBjMQswCQYDVQQGEwJVUzEXMBUGA1UEChMORGlnaUNlcnQsIEluYy4xOzA5BgNVBAMTMkRpZ2lDZXJ0IFRydXN0ZWQgRzQgUlNBNDA5NiBTSEEyNTYgVGltZVN0YW1waW5nIENBMIICIjANBgkqhkiG9w0BAQEFAAOCAg8AMIICCgKCAgEAxoY1BkmzwT1ySVFVxyUDxPKRN6mXUaHW0oPRnkyibaCwzIP5WvYRoUQVQl+kiPNo+n3znIkLf50fng8zH1ATCyZzlm34V6gCff1DtITaEfFzsbPuK4CEiiIY3+vaPcQXf6sZKz5C3GeO6lE98NZW1OcoLevTsbV15x8GZY2UKdPZ7Gnf2ZCHRgB720RBidx8ald68Dd5n12sy+iEZLRS8nZH92GDGd1ftFQLIWhuNyG7QKxfst5Kfc71ORJn7w6lY2zkpsUdzTYNXNXmG6jBZHRAp8ByxbpOH7G1WE15/tePc5OsLDnipUjW8LAxE6lXKZYnLvWHpo9OdhVVJnCYJn+gGkcgQ+NDY4B7dW4nJZCYOjgRs/b2nuY7W+yB3iIU2YIqx5K/oN7jPqJz+ucfWmyU8lKVEStYdEAoq3NDzt9KoRxrOMUp88qqlnNCaJ+2RrOdOqPVA+C/8KI8ykLcGEh/FDTP0kyr75s9/g64ZCr6dSgkQe1CvwWcZklSUPRR8zZJTYsg0ixXNXkrqPNFYLwjjVj33GHek/45wPmyMKVM1+mYSlg+0wOI/rOP015LdhJRk8mMDDtbiiKowSYI+RQQEgN9XyO7ZONj4KbhPvbCdLI/Hgl27KtdRnXiYKNYCQEoAA6EVO7O6V3IXjASvUaetdN2udIOa5kM0jO0zbECAwEAAaOCAV0wggFZMBIGA1UdEwEB/wQIMAYBAf8CAQAwHQYDVR0OBBYEFLoW2W1NhS9zKXaaL3WMaiCPnshvMB8GA1UdIwQYMBaAFOzX44LScV1kTN8uZz/nupiuHA9PMA4GA1UdDwEB/wQEAwIBhjATBgNVHSUEDDAKBggrBgEFBQcDCDB3BggrBgEFBQcBAQRrMGkwJAYIKwYBBQUHMAGGGGh0dHA6Ly9vY3NwLmRpZ2ljZXJ0LmNvbTBBBggrBgEFBQcwAoY1aHR0cDovL2NhY2VydHMuZGlnaWNlcnQuY29tL0RpZ2lDZXJ0VHJ1c3RlZFJvb3RHNC5jcnQwQwYDVR0fBDwwOjA4oDagNIYyaHR0cDovL2NybDMuZGlnaWNlcnQuY29tL0RpZ2lDZXJ0VHJ1c3RlZFJvb3RHNC5jcmwwIAYDVR0gBBkwFzAIBgZngQwBBAIwCwYJYIZIAYb9bAcBMA0GCSqGSIb3DQEBCwUAA4ICAQB9WY7Ak7ZvmKlEIgF+ZtbYIULhsBguEE0TzzBTzr8Y+8dQXeJLKftwig2qKWn8acHPHQfpPmDI2AvlXFvXbYf6hCAlNDFnzbYSlm/EUExiHQwIgqgWvalWzxVzjQEiJc6VaT9Hd/tydBTX/6tPiix6q4XNQ1/tYLaqT5Fmniye4Iqs5f2MvGQmh2ySvZ180HAKfO+ovHVPulr3qRCyXen/KFSJ8NWKcXZl2szwcqMj+sAngkSumScbqyQeJsG33irr9p6xeZmBo1aGqwpFyd/EjaDnmPv7pp1yr8THwcFqcdnGE4AJxLafzYeHJLtPo0m5d2aR8XKc6UsCUqc3fpNTrDsdCEkPlM05et3/JWOZJyw9P2un8WbDQc1PtkCbISFA0LcTJM3cHXg65J6t5TRxktcma+Q4c6umAU+9Pzt4rUyt+8SVe+0KXzM5h0F4ejjpnOHdI/0dKNPH+ejxmF/7K9h+8kaddSweJywm228Vex4Ziza4k9Tm8heZWcpw8De/mADfIBZPJ/tgZxahZrrdVcA6KYawmKAr7ZVBtzrVFZgxtGIJDwq9gdkT/r+k0fNX2bwE+oLeMt8EifAAzV3C+dAjfwAL5HYCJtnwZXZCpimHCUcr5n8apIUP/JiW9lVUKx+A+sDyDivl1vupL0QVSucTDh3bNzgaoSv27dZ8/DGCAbkwggG1AgEBMHcwYzELMAkGA1UEBhMCVVMxFzAVBgNVBAoTDkRpZ2lDZXJ0LCBJbmMuMTswOQYDVQQDEzJEaWdpQ2VydCBUcnVzdGVkIEc0IFJTQTQwOTYgU0hBMjU2IFRpbWVTdGFtcGluZyBDQQIQDAsvx3p4z7rtZVZUwZokAzANBglghkgBZQMEAgEFAKCB0TAaBgkqhkiG9w0BCQMxDQYLKoZIhvcNAQkQAQQwHAYJKoZIhvcNAQkFMQ8XDTI0MTEyMjAxNTc1N1owKwYLKoZIhvcNAQkQAgwxHDAaMBgwFgQU9xMCVGQbnM7SUS1ixb+fKYSM/PgwLwYJKoZIhvcNAQkEMSIEIA6HwQc5TCaMBR/bqfeB+fS46mvYEXvfy2DCmpgOcS+rMDcGCyqGSIb3DQEJEAIvMSgwJjAkMCIEILl6JmgdGOm5fGM++Eg5ZFV1l5baUENELI+MzeUn4ACpMAoGCCqGSM49BAMCBEgwRgIhAKQ6nBvrS07jPORfyOeOH31q9FMUxGtdIoFYXUzGe+n6AiEA8FDYcw7/hPU17hrItOCUMBuoeXr6uHqj2Rp9sF88H4djcGFkWROEAAAAAAAAAAAAAAAAAAAAAAAAAAAAAAAAAAAAAAAAAAAAAAAAAAAAAAAAAAAAAAAAAAAAAAAAAAAAAAAAAAAAAAAAAAAAAAAAAAAAAAAAAAAAAAAAAAAAAAAAAAAAAAAAAAAAAAAAAAAAAAAAAAAAAAAAAAAAAAAAAAAAAAAAAAAAAAAAAAAAAAAAAAAAAAAAAAAAAAAAAAAAAAAAAAAAAAAAAAAAAAAAAAAAAAAAAAAAAAAAAAAAAAAAAAAAAAAAAAAAAAAAAAAAAAAAAAAAAAAAAAAAAAAAAAAAAAAAAAAAAAAAAAAAAAAAAAAAAAAAAAAAAAAAAAAAAAAAAAAAAAAAAAAAAAAAAAAAAAAAAAAAAAAAAAAAAAAAAAAAAAAAAAAAAAAAAAAAAAAAAAAAAAAAAAAAAAAAAAAAAAAAAAAAAAAAAAAAAAAAAAAAAAAAAAAAAAAAAAAAAAAAAAAAAAAAAAAAAAAAAAAAAAAAAAAAAAAAAAAAAAAAAAAAAAAAAAAAAAAAAAAAAAAAAAAAAAAAAAAAAAAAAAAAAAAAAAAAAAAAAAAAAAAAAAAAAAAAAAAAAAAAAAAAAAAAAAAAAAAAAAAAAAAAAAAAAAAAAAAAAAAAAAAAAAAAAAAAAAAAAAAAAAAAAAAAAAAAAAAAAAAAAAAAAAAAAAAAAAAAAAAAAAAAAAAAAAAAAAAAAAAAAAAAAAAAAAAAAAAAAAAAAAAAAAAAAAAAAAAAAAAAAAAAAAAAAAAAAAAAAAAAAAAAAAAAAAAAAAAAAAAAAAAAAAAAAAAAAAAAAAAAAAAAAAAAAAAAAAAAAAAAAAAAAAAAAAAAAAAAAAAAAAAAAAAAAAAAAAAAAAAAAAAAAAAAAAAAAAAAAAAAAAAAAAAAAAAAAAAAAAAAAAAAAAAAAAAAAAAAAAAAAAAAAAAAAAAAAAAAAAAAAAAAAAAAAAAAAAAAAAAAAAAAAAAAAAAAAAAAAAAAAAAAAAAAAAAAAAAAAAAAAAAAAAAAAAAAAAAAAAAAAAAAAAAAAAAAAAAAAAAAAAAAAAAAAAAAAAAAAAAAAAAAAAAAAAAAAAAAAAAAAAAAAAAAAAAAAAAAAAAAAAAAAAAAAAAAAAAAAAAAAAAAAAAAAAAAAAAAAAAAAAAAAAAAAAAAAAAAAAAAAAAAAAAAAAAAAAAAAAAAAAAAAAAAAAAAAAAAAAAAAAAAAAAAAAAAAAAAAAAAAAAAAAAAAAAAAAAAAAAAAAAAAAAAAAAAAAAAAAAAAAAAAAAAAAAAAAAAAAAAAAAAAAAAAAAAAAAAAAAAAAAAAAAAAAAAAAAAAAAAAAAAAAAAAAAAAAAAAAAAAAAAAAAAAAAAAAAAAAAAAAAAAAAAAAAAAAAAAAAAAAAAAAAAAAAAAAAAAAAAAAAAAAAAAAAAAAAAAAAAAAAAAAAAAAAAAAAAAAAAAAAAAAAAAAAAAAAAAAAAAAAAAAAAAAAAAAAAAAAAAAAAAAAAAAAAAAAAAAAAAAAAAAAAAAAAAAAAAAAAAAAAAAAAAAAAAAAAAAAAAAAAAAAAAAAAAAAAAAAAAAAAAAAAAAAAAAAAAAAAAAAAAAAAAAAAAAAAAAAAAAAAAAAAAAAAAAAAAAAAAAAAAAAAAAAAAAAAAAAAAAAAAAAAAAAAAAAAAAAAAAAAAAAAAAAAAAAAAAAAAAAAAAAAAAAAAAAAAAAAAAAAAAAAAAAAAAAAAAAAAAAAAAAAAAAAAAAAAAAAAAAAAAAAAAAAAAAAAAAAAAAAAAAAAAAAAAAAAAAAAAAAAAAAAAAAAAAAAAAAAAAAAAAAAAAAAAAAAAAAAAAAAAAAAAAAAAAAAAAAAAAAAAAAAAAAAAAAAAAAAAAAAAAAAAAAAAAAAAAAAAAAAAAAAAAAAAAAAAAAAAAAAAAAAAAAAAAAAAAAAAAAAAAAAAAAAAAAAAAAAAAAAAAAAAAAAAAAAAAAAAAAAAAAAAAAAAAAAAAAAAAAAAAAAAAAAAAAAAAAAAAAAAAAAAAAAAAAAAAAAAAAAAAAAAAAAAAAAAAAAAAAAAAAAAAAAAAAAAAAAAAAAAAAAAAAAAAAAAAAAAAAAAAAAAAAAAAAAAAAAAAAAAAAAAAAAAAAAAAAAAAAAAAAAAAAAAAAAAAAAAAAAAAAAAAAAAAAAAAAAAAAAAAAAAAAAAAAAAAAAAAAAAAAAAAAAAAAAAAAAAAAAAAAAAAAAAAAAAAAAAAAAAAAAAAAAAAAAAAAAAAAAAAAAAAAAAAAAAAAAAAAAAAAAAAAAAAAAAAAAAAAAAAAAAAAAAAAAAAAAAAAAAAAAAAAAAAAAAAAAAAAAAAAAAAAAAAAAAAAAAAAAAAAAAAAAAAAAAAAAAAAAAAAAAAAAAAAAAAAAAAAAAAAAAAAAAAAAAAAAAAAAAAAAAAAAAAAAAAAAAAAAAAAAAAAAAAAAAAAAAAAAAAAAAAAAAAAAAAAAAAAAAAAAAAAAAAAAAAAAAAAAAAAAAAAAAAAAAAAAAAAAAAAAAAAAAAAAAAAAAAAAAAAAAAAAAAAAAAAAAAAAAAAAAAAAAAAAAAAAAAAAAAAAAAAAAAAAAAAAAAAAAAAAAAAAAAAAAAAAAAAAAAAAAAAAAAAAAAAAAAAAAAAAAAAAAAAAAAAAAAAAAAAAAAAAAAAAAAAAAAAAAAAAAAAAAAAAAAAAAAAAAAAAAAAAAAAAAAAAAAAAAAAAAAAAAAAAAAAAAAAAAAAAAAAAAAAAAAAAAAAAAAAAAAAAAAAAAAAAAAAAAAAAAAAAAAAAAAAAAAAAAAAAAAAAAAAAAAAAAAAAAAAAAAAAAAAAAAAAAAAAAAAAAAAAAAAAAAAAAAAAAAAAAAAAAAAAAAAAAAAAAAAAAAAAAAAAAAAAAAAAAAAAAAAAAAAAAAAAAAAAAAAAAAAAAAAAAAAAAAAAAAAAAAAAAAAAAAAAAAAAAAAAAAAAAAAAAAAAAAAAAAAAAAAAAAAAAAAAAAAAAAAAAAAAAAAAAAAAAAAAAAAAAAAAAAAAAAAAAAAAAAAAAAAAAAAAAAAAAAAAAAAAAAAAAAAAAAAAAAAAAAAAAAAAAAAAAAAAAAAAAAAAAAAAAAAAAAAAAAAAAAAAAAAAAAAAAAAAAAAAAAAAAAAAAAAAAAAAAAAAAAAAAAAAAAAAAAAAAAAAAAAAAAAAAAAAAAAAAAAAAAAAAAAAAAAAAAAAAAAAAAAAAAAAAAAAAAAAAAAAAAAAAAAAAAAAAAAAAAAAAAAAAAAAAAAAAAAAAAAAAAAAAAAAAAAAAAAAAAAAAAAAAAAAAAAAAAAAAAAAAAAAAAAAAAAAAAAAAAAAAAAAAAAAAAAAAAAAAAAAAAAAAAAAAAAAAAAAAAAAAAAAAAAAAAAAAAAAAAAAAAAAAAAAAAAAAAAAAAAAAAAAAAAAAAAAAAAAAAAAAAAAAAAAAAAAAAAAAAAAAAAAAAAAAAAAAAAAAAAAAAAAAAAAAAAAAAAAAAAAAAAAAAAAAAAAAAAAAAAAAAAAAAAAAAAAAAAAAAAAAAAAAAAAAAAAAAAAAAAAAAAAAAAAAAAAAAAAAAAAAAAAAAAAAAAAAAAAAAAAAAAAAAAAAAAAAAAAAAAAAAAAAAAAAAAAAAAAAAAAAAAAAAAAAAAAAAAAAAAAAAAAAAAAAAAAAAAAAAAAAAAAAAAAAAAAAAAAAAAAAAAAAAAAAAAAAAAAAAAAAAAAAAAAAAAAAAAAAAAAAAAAAAAAAAAAAAAAAAAAAAAAAAAAAAAAAAAAAAAAAAAAAAAAAAAAAAAAAAAAAAAAAAAAAAAAAAAAAAAAAAAAAAAAAAAAAAAAAAAAAAAAAAAAAAAAAAAAAAAAAAAAAAAAAAAAAAAAAAAAAAAAAAAAAAAAAAAAAAAAAAAAAAAAAAAAAAAAAAAAAAAAAAAAAAAAAAAAAAAAAAAAAAAAAAAAAAAAAAAAAAAAAAAAAAAAAAAAAAAAAAAAAAAAAAAAAAAAAAAAAAAAAAAAAAAAAAAAAAAAAAAAAAAAAAAAAAAAAAAAAAAAAAAAAAAAAAAAAAAAAAAAAAAAAAAAAAAAAAAAAAAAAAAAAAAAAAAAAAAAAAAAAAAAAAAAAAAAAAAAAAAAAAAAAAAAAAAAAAAAAAAAAAAAAAAAAAAAAAAAAAAAAAAAAAAAAAAAAAAAAAAAAAAAAAAAAAAAAAAAAAAAAAAAAAAAAAAAAAAAAAAAAAAAAAAAAAAAAAAAAAAAAAAAAAAAAAAAAAAAAAAAAAAAAAAAAAAAAAAAAAAAAAAAAAAAAAAAAAAAAAAAAAAAAAAAAAAAAAAAAAAAAAAAAAAAAAAAAAAAAAAAAAAAAAAAAAAAAAAAAAAAAAAAAAAAAAAAAAAAAAAAAAAAAAAAAAAAAAAAAAAAAAAAAAAAAAAAAAAAAAAAAAAAAAAAAAAAAAAAAAAAAAAAAAAAAAAAAAAAAAAAAAAAAAAAAAAAAAAAAAAAAAAAAAAAAAAAAAAAAAAAAAAAAAAAAAAAAAAAAAAAAAAAAAAAAAAAAAAAAAAAAAAAAAAAAAAAAAAAAAAAAAAAAAAAAAAAAAAAAAAAAAAAAAAAAAAAAAAAAAAAAAAAAAAAAAAAAAAAAAAAAAAAAAAAAAAAAAAAAAAAAAAAAAAAAAAAAAAAAAAAAAAAAAAAAAAAAAAAAAAAAAAAAAAAAAAAAAAAAAAAAAAAAAAAAAAAAAAAAAAAAAAAAAAAAAAAAAAAAAAAAAAAAAAAAAAAAAAAAAAAAAAAAAAAAAAAAAAAAAAAAAAAAAAAAAAAAAAAAAAAAAAAAAAAAAAAAAAAAAAAAAAAAAAAAAAAAAAAAAAAAAAAAAAAAAAAAAAAAAAAAAAAAAAAAAAAAAAAAAAAAAAAAAAAAAAAAAAAAAAAAAAAAAAAAAAAAAAAAAAAAAAAAAAAAAAAAAAAAAAAAAAAAAAAAAAAAAAAAAAAAAAAAAAAAAAAAAAAAAAAAAAAAAAAAAAAAAAAAAAAAAAAAAAAAAAAAAAAAAAAAAAAAAAAAAAAAAAAAAAAAAAAAAAAAAAAAAAAAAAAAAAAAAAAAAAAAAAAAAAAAAAAAAAAAAAAAAAAAAAAAAAAAAAAAAAAAAAAAAAAAAAAAAAAAAAAAAAAAAAAAAAAAAAAAAAAAAAAAAAAAAAAAAAAAAAAAAAAAAAAAAAAAAAAAAAAAAAAAAAAAAAAAAAAAAAAAAAAAAAAAAAAAAAAAAAAAAAAAAAAAAAAAAAAAAAAAAAAAAAAAAAAAAAAAAAAAAAAAAAAAAAAAAAAAAAAAAAAAAAAAAAAAAAAAAAAAAAAAAAAAAAAAAAAAAAAAAAAAAAAAAAAAAAAAAAAAAAAAAAAAAAAAAAAAAAAAAAAAAAAAAAAAAAAAAAAAAAAAAAAAAAAAAAAAAAAAAAAAAAAAAAAAAAAAAAAAAAAAAAAAAAAAAAAAAAAAAAAAAAAAAAAAAAAAAAAAAAAAAAAAAAAAAAAAAAAAAAAAAAAAAAAAAAAAAAAAAAAAAAAAAAAAAAAAAAAAAAAAAAAAAAAAAAAAAAAAAAAAAAAAAAAAAAAAAAAAAAAAAAAAAAAAAAAAAAAAAAAAAAAAAAAAAAAAAAAAAAAAAAAAAAAAAAAAAAAAAAAAAAAAAAAAAAAAAAAAAAAAAAAAAAAAAAAAAAAAAAAAAAAAAAAAAAAAAAAAAAAAAAAAAAAAAAAAAAAAAAAAAAAAAAAAAAAAAAAAAAAAAAAAAAAAAAAAAAAAAAAAAAAAAAAAAAAAAAAAAAAAAAAAAAAAAAAAAAAAAAAAAAAAAAAAAAAAAAAAAAAAAAAAAAAAAAAAAAAAAAAAAAAAAAAAAAAAAAAAAAAAAAAAAAAAAAAAAAAAAAAAAAAAAAAAAAAAAAAAAAAAAAAAAAAAAAAAAAAAAAAAAAAAAAAAAAAAAAAAAAAAAAAAAAAAAAAAAAAAAAAAAAAAAAAAAAAAAAAAAAAAAAAAAAAAAAAAAAAAAAAAAAAAAAAAAAAAAAAAAAAAAAAAAAAAAAAAAAAAAAAAAAAAAAAAAAAAAAAAAAAAAAAAAAAAAAAAAAAAAAAAAAAAAAAAAAAAAAAAAAAAAAAAAAAAAAAAAAAAAAAAAAAAAAAAAAAAAAAAAAAAAAAAAAAAAAAAAAAAAAAAAAAAAAAAAAAAAAAAAAAAAAAAAAAAAAAAAAAAAAAAAAAAAAAAAAAAAAAAAAAAAAAAAAAAAAAAAAAAAAAAAAAAAAAAAAAAAAAAAAAAAAAAAAAAAAAAAAAAAAAAAAAAAAAAAAAAAAAAAAAAAAAAAAAAAAAAAAAAAAAAAAAAAAAAAAAAAAAAAAAAAAAAAAAAAAAAAAAAAAAAAAAAAAAAAAAAAAAAAAAAAAAAAAAAAAAAAAAAAAAAAAAAAAAAAAAAAAAAAAAAAAAAAAAAAAAAAAAAAAAAAAAAAAAAAAAAAAAAAAAAAAAAAAAAAAAAAAAAAAAAAAAAAAAAAAAAAAAAAAAAAAAAAAAAAAAAAAAAAAAAAAAAAAAAAAAAAAAAAAAAAAAAAAAAAAAAAAAAAAAAAAAAAAAAAAAAAAAAAAAAAAAAAAAAAAAAAAAAAAAAAAAAAAAAAAAAAAAAAAAAAAAAAAAAAAAAAAAAAAAAAAAAAAAAAAAAAAAAAAAAAAAAAAAAAAAPZZAQAyCnB3Rn8wee9ZhU2jOELeJCNh8R3Gc6xuxVEdmsmEgbQ08E+6pK1Axk9GgKHNikYvFoSuaf1BCe7EXohBjDOPgdUXcrbQ7ma56oENqlxDQfjYeQawRkVVqQQhgvpTbyuLSgbJZVYzPF2QuVsJ2y5C0AG6tvN+PD/q0gdAmpsQyDrxodDps1RkW/YBA8+70kTzQm+jdhjie+PEBl9X0lue64qcGqE/c1B84eYlTKeqXAaFibYQRfZMeIi7Ay4phZh3TseyhEK4K9oeoCjeZeSoAWgTBy6sWV79w1wg1L4U7o6ngWs4zAb9Q85xquYWODZozR2oNuvkEIuFmS1br8yo</c2pa:manifest></metadata>
  <defs>
    <style>
      .cls-1 {
        fill: #39474f;
      }
    </style>
  </defs>
  <path class="cls-1" d="M23.78,24.44s4.34.33,9.13-6.27c0,0-.06.16.85,0,.91-.16,2.47-.92,4.45-.05s2.97,3.59,3.3,3.68c.33.08.96-3.46.07-5.03s-1.22-2.47-.81-3.3c.41-.82.25-1.98.25-1.98,0,0,.66-1.07.41-1.65-.25-.58-.66,1.98-1.57,1.48-.78-.43-.89-1.03-.9-1.19.46-.53,1.73-.89,1.29-1.05-.59-.21-1.62.53-1.62.53,0,0-1.16-.08-1.96.38-.79.47-1.72.2-3.35-.58-1.62-.78-5.12.1-5.01.42.11.32,2.89,1.12,3.9,3.03,1.01,1.91.37,3.53.26,4.44-.04.3.01.48.12.58-.6.85-4.36,5.86-8.81,6.54ZM30.79,10.01c2.71.74,3.3,3.05,3.3,3.05.16-.74,2.72-1.73,1.73-.91-.99.82-2.06,3.21-2.06,3.21.16-3.79-2.97-5.36-2.97-5.36Z"/>
  <path class="cls-1" d="M9.66,31.13c.48.04,1.38-.14,2.26.58.88.72,1.01,2.27,1.16,2.35.16.09.97-1.66.73-2.6-.24-.93-.28-1.45.05-1.82.32-.37.4-.99.4-.99,0,0,.48-.47.44-.8s-.61.94-1,.56c-.34-.33-.31-.65-.29-.74.31-.21,1-.23.8-.37-.27-.19-.89.05-.89.05,0,0-.58-.2-1.05-.07-.47.13-.9-.13-1.62-.76-.72-.63-2.61-.64-2.6-.46,0,.18,1.31.97,1.56,2.1.25,1.13-.3,1.88-.48,2.34-.06.15-.05.24,0,.3-.39.33-3.02,2.46-5.39,2.2,0,0,2.16.76,5.5-2.01,0,0-.05.08.43.12ZM9.29,26.5c1.27.75,1.25,2.03,1.25,2.03.19-.36,1.62-.53,1-.23-.62.29-1.49,1.39-1.49,1.39.61-1.94-.76-3.18-.76-3.18Z"/>
  <path class="cls-1" d="M40.9,27.44c.14-.47-.06-1.07-.06-1.07,0,0,.24-.63.06-.91-.18-.28-.16,1.1-.67.93-.44-.15-.56-.46-.58-.55.19-.32.81-.63.57-.67-.33-.05-.79.42-.79.42,0,0-.61.06-.98.38-.37.32-.87.26-1.78,0-.91-.27-2.64.52-2.55.68.08.16,1.6.33,2.3,1.25.7.92.52,1.83.55,2.32,0,.16.06.24.12.28-.21.46-1.69,3.5-3.95,4.27,0,0,2.28-.22,4.14-4.14,0,0-.01.09.44-.08.45-.17,1.19-.71,2.3-.43,1.1.28,1.87,1.63,2.05,1.64.18.01.18-1.92-.43-2.66-.61-.75-.86-1.19-.73-1.67ZM38.22,27.19c-.43.53-.77,1.89-.77,1.89-.27-2.02-2.03-2.56-2.03-2.56,1.47.15,1.99,1.31,1.99,1.31.02-.41,1.25-1.16.81-.64Z"/>
  <path class="cls-1" d="M13.51,23.52s3.26.02,6.49-5.18c0,0-.03.13.63-.05.67-.17,1.8-.82,3.32-.27s2.4,2.54,2.65,2.58c.25.04.54-2.65-.21-3.78-.75-1.13-1.04-1.79-.78-2.43.27-.64.08-1.5.08-1.5,0,0,.44-.84.22-1.26-.21-.42-.39,1.52-1.09,1.2-.6-.28-.72-.73-.74-.85.32-.42,1.24-.76.91-.86-.45-.12-1.18.48-1.18.48,0,0-.87,0-1.44.39-.57.39-1.28.24-2.53-.26-1.25-.5-3.82.35-3.72.58.1.24,2.22.69,3.07,2.07.85,1.38.46,2.63.42,3.32-.01.23.05.34.13.41-.37.61-2.93,4.64-6.26,5.4ZM18,12.32c2.06.41,2.62,2.11,2.62,2.11.08-.57,1.94-1.44,1.25-.77-.7.67-1.37,2.52-1.37,2.52-.07-2.85-2.49-3.86-2.49-3.86Z"/>
  <path class="cls-1" d="M10.34,39.21s4.14,1.37,10.37-3.87c0,0-.1.15.82.21s2.62-.3,4.33,1.03c1.71,1.33,2.01,4.2,2.31,4.36.3.16,1.77-3.13,1.29-4.86-.49-1.74-.59-2.7,0-3.4.6-.7.72-1.86.72-1.86,0,0,.9-.88.8-1.5-.1-.62-1.12,1.76-1.88,1.06-.66-.6-.61-1.22-.59-1.38.58-.4,1.89-.45,1.5-.7-.53-.34-1.7.12-1.7.12,0,0-1.11-.36-1.99-.1-.88.26-1.72-.22-3.11-1.37s-4.99-1.14-4.96-.8c.02.34,2.53,1.79,3.05,3.89.52,2.1-.49,3.51-.82,4.38-.11.28-.11.47-.02.59-.79.68-5.64,4.64-10.13,4.22ZM20.63,26.91c2.45,1.37,2.46,3.76,2.46,3.76.34-.68,3.06-1.02,1.9-.46s-2.78,2.62-2.78,2.62c1.08-3.64-1.58-5.92-1.58-5.92Z"/>
</svg>