<?xml version="1.0" encoding="UTF-8"?>
<svg id="icon" xmlns="http://www.w3.org/2000/svg" viewBox="0 0 50 50"><metadata><c2pa:manifest xmlns:c2pa="http://c2pa.org/manifest">AAA0RGp1bWIAAAAeanVtZGMycGEAEQAQgAAAqgA4m3EDYzJwYQAAADQeanVtYgAAAEdqdW1kYzJtYQARABCAAACqADibcQN1cm46dXVpZDpmNmVkYjAwNC1kYzVkLTRhY2UtYmJjNy1hNGZjM2E4MmVkNzcAAAABtGp1bWIAAAApanVtZGMyYXMAEQAQgAAAqgA4m3EDYzJwYS5hc3NlcnRpb25zAAAAANdqdW1iAAAAJmp1bWRjYm9yABEAEIAAAKoAOJtxA2MycGEuYWN0aW9ucwAAAACpY2JvcqFnYWN0aW9uc4GjZmFjdGlvbmtjMnBhLmVkaXRlZG1zb2Z0d2FyZUFnZW50bUFkb2JlIEZpcmVmbHlxZGlnaXRhbFNvdXJjZVR5cGV4U2h0dHA6Ly9jdi5pcHRjLm9yZy9uZXdzY29kZXMvZGlnaXRhbHNvdXJjZXR5cGUvY29tcG9zaXRlV2l0aFRyYWluZWRBbGdvcml0aG1pY01lZGlhAAAArGp1bWIAAAAoanVtZGNib3IAEQAQgAAAqgA4m3EDYzJwYS5oYXNoLmRhdGEAAAAAfGNib3KlamV4Y2x1c2lvbnOBomVzdGFydBisZmxlbmd0aBlFsGRuYW1lbmp1bWJmIG1hbmlmZXN0Y2FsZ2ZzaGEyNTZkaGFzaFggbWEig7wXOxcDwN3IsReytKkkZk3BLugAdrRsULl0m4pjcGFkSQAAAAAAAAAAAAAAAgtqdW1iAAAAJGp1bWRjMmNsABEAEIAAAKoAOJtxA2MycGEuY2xhaW0AAAAB32Nib3KoaGRjOnRpdGxlb0dlbmVyYXRlZCBJbWFnZWlkYzpmb3JtYXRtaW1hZ2Uvc3ZnK3htbGppbnN0YW5jZUlEeCx4bXA6aWlkOjY0MTExYTA0LWUyNTctNDlkNi1iZWY1LWYzMjQ4ZmFiMTRiYW9jbGFpbV9nZW5lcmF0b3J4NkFkb2JlX0lsbHVzdHJhdG9yLzI5LjEgYWRvYmVfYzJwYS8wLjcuNiBjMnBhLXJzLzAuMjUuMnRjbGFpbV9nZW5lcmF0b3JfaW5mb4G/ZG5hbWVxQWRvYmUgSWxsdXN0cmF0b3JndmVyc2lvbmQyOS4x/2lzaWduYXR1cmV4GXNlbGYjanVtYmY9YzJwYS5zaWduYXR1cmVqYXNzZXJ0aW9uc4KiY3VybHgnc2VsZiNqdW1iZj1jMnBhLmFzc2VydGlvbnMvYzJwYS5hY3Rpb25zZGhhc2hYIEppwb3/qN5BMHi+JO3M+DE6wdFklTRWcaANawazN9SvomN1cmx4KXNlbGYjanVtYmY9YzJwYS5hc3NlcnRpb25zL2MycGEuaGFzaC5kYXRhZGhhc2hYIKqwjXTQspcjfDCiwtLifVPcE8OVXBCwATzYgWO5oAUaY2FsZ2ZzaGEyNTYAADAQanVtYgAAAChqdW1kYzJjcwARABCAAACqADibcQNjMnBhLnNpZ25hdHVyZQAAAC/gY2JvctKEWQzvogE4JBghglkGPTCCBjkwggQhoAMCAQICEBWN/yesI9K4JUtOYzceHZ4wDQYJKoZIhvcNAQELBQAwdTELMAkGA1UEBhMCVVMxIzAhBgNVBAoTGkFkb2JlIFN5c3RlbXMgSW5jb3Jwb3JhdGVkMR0wGwYDVQQLExRBZG9iZSBUcnVzdCBTZXJ2aWNlczEiMCAGA1UEAxMZQWRvYmUgUHJvZHVjdCBTZXJ2aWNlcyBHMzAeFw0yNDEwMTUwMDAwMDBaFw0yNTEwMTUyMzU5NTlaMIGrMRMwEQYDVQQDDApBZG9iZSBDMlBBMSgwJgYDVQQLDB9Db250ZW50IEF1dGhlbnRpY2l0eSBJbml0aWF0aXZlMRMwEQYDVQQKDApBZG9iZSBJbmMuMREwDwYDVQQHDAhTYW4gSm9zZTETMBEGA1UECAwKQ2FsaWZvcm5pYTELMAkGA1UEBhMCVVMxIDAeBgkqhkiG9w0BCQEWEWNhaS1vcHNAYWRvYmUuY29tMIIBIjANBgkqhkiG9w0BAQEFAAOCAQ8AMIIBCgKCAQEAwxDBgdB9PXLpMXPw5oNgYkFWDPP1aSfth9TZPINOtOQlhp1v4h+hMxZWFjkZ3RJRuoSBrsSSYBaEfiDMKisi/sOxuFHKBV//l1rv3SrjrixANXIlqjGdIYydaMaFa/5ovFz/m4+SUz0ccYzqw+vSAzuRySGnpgm8Gmj+SEJcL/GIHzqU9bUy3NsizY2oY28yj32rbkOqeADSM51OqIJKloEBFFexzMunzpU+K2sLqheoR8FJMaR0fGXa/gqRzhkiBFhwUhLPS9s6+TCnz09UZMlXbdG/iFKj3UPFUDjqh0wtFgcz24DrUlaWeiltKHouymBHuirzvmOG0VtSPepxOQIDAQABo4IBjDCCAYgwDAYDVR0TAQH/BAIwADAOBgNVHQ8BAf8EBAMCB4AwHgYDVR0lBBcwFQYJKoZIhvcvAQEMBggrBgEFBQcDBDCBjgYDVR0gBIGGMIGDMIGABgkqhkiG9y8BAgMwczBxBggrBgEFBQcCAjBlDGNZb3UgYXJlIG5vdCBwZXJtaXR0ZWQgdG8gdXNlIHRoaXMgTGljZW5zZSBDZXJ0aWZpY2F0ZSBleGNlcHQgYXMgcGVybWl0dGVkIGJ5IHRoZSBsaWNlbnNlIGFncmVlbWVudC4wXQYDVR0fBFYwVDBSoFCgToZMaHR0cDovL3BraS1jcmwuc3ltYXV0aC5jb20vY2FfN2E1YzNhMGM3MzExNzQwNmFkZDE5MzEyYmMxYmMyM2YvTGF0ZXN0Q1JMLmNybDA3BggrBgEFBQcBAQQrMCkwJwYIKwYBBQUHMAGGG2h0dHA6Ly9wa2ktb2NzcC5zeW1hdXRoLmNvbTAfBgNVHSMEGDAWgBRXKXoyTcz+5DVOwB8kc85zU6vfajANBgkqhkiG9w0BAQsFAAOCAgEAqrl6FLQ+c9LYaf0igyTgErNL9XmmieiT3ohKFevJ3BN7kWkZD1znbVw3XnX5tgQaKq+AiSCldNxYEKqU+Rq9Lr26GGglBSA0s/Ds2kw+2LlnTmojAHCH3CvVRbhGHHrashmnfgwmF1TSkaWk7NxEhbt9wQoiEMkLSQeM4S4Cu+176FzEdy+zzkDkRWqeSOQO/qG2WRto/vIq30ECf6v6FtazJI1CWIqhBK5oJioSNbLsCVJhar3Uca9D11ujeZW4k2jPCsnzriTmFqVftd3k2SXUQg7wQcQcXfKBItWZt8ztn0IYoZzJa1x9l9dvXKAJvNsDoz4uDerS8z9rzLsEQvzL1yPbTp4+/6mTTAWsoaDtmkZgm3X+sffPX3XzMFmfzIHiYfUja5nKK2bs4P71tit/1U/FD2xdlpzZSupRqCMGz+UTeXI8IrN5ZR/+F8rSsmRAStjnggz/wDucwcDlJbY4/RKq3BrAi4LamLMIfwo/dbL55TDlIOd7HCfmSgabc1WO0Kji3LW/VZnP9VG8WiUG+WqtN1OQIAZmFUOWdXQGLag+I1OaZ1BXJDNsJiXcg2TGNBSEPo44Akfn9MzFGKyB5UurMN4NH0qlamhrhKiV0+b73Fjx330P/frxBmzx5NpAQhNKksx+F4z1S8Ay1o2TBIkkeAFbDzy8f/FxuytZBqUwggahMIIEiaADAgECAhAMqLZUe4nm0gaJdc2Lm4niMA0GCSqGSIb3DQEBCwUAMGwxCzAJBgNVBAYTAlVTMSMwIQYDVQQKExpBZG9iZSBTeXN0ZW1zIEluY29ycG9yYXRlZDEdMBsGA1UECxMUQWRvYmUgVHJ1c3QgU2VydmljZXMxGTAXBgNVBAMTEEFkb2JlIFJvb3QgQ0EgRzIwHhcNMTYxMTI5MDAwMDAwWhcNNDExMTI4MjM1OTU5WjB1MQswCQYDVQQGEwJVUzEjMCEGA1UEChMaQWRvYmUgU3lzdGVtcyBJbmNvcnBvcmF0ZWQxHTAbBgNVBAsTFEFkb2JlIFRydXN0IFNlcnZpY2VzMSIwIAYDVQQDExlBZG9iZSBQcm9kdWN0IFNlcnZpY2VzIEczMIICIjANBgkqhkiG9w0BAQEFAAOCAg8AMIICCgKCAgEAtx8uvb0Js1xIbP4Mg65sAepReCWkgD6Jp7GyiGTa9ol2gfn5HfOV/HiYjZiOz+TuHFU+DXNad86xEqgVeGVMlvIHGe/EHcKBxvEDXdlTXB5zIEkfl0/SGn7J6vTX8MNybfSi95eQDUOZ9fjCaq+PBFjS5ZfeNmzi/yR+MsA0jKKoWarSRCFFFBpUFQWfAgLyXOyxOnXQOQudjxNj6Wu0X0IB13+IH11WcKcWEWXM4j4jh6hLy29Cd3EoVG3oxcVenMF/EMgD2tXjx4NUbTNB1/g9+MR6Nw5Mhp5k/g3atNExAxhtugC+T3SDShSEJfs2quiiRUHtX3RhOcK1s1OJgT5s2s9xGy5/uxVpcAIaK2KiDJXW3xxN8nXPmk1NSVu/mxtfapr4TvSJbhrU7UA3qhQY9n4On2sbH1X1Tw+7LTek8KCA5ZDghOERPiIp/Jt893qov1bE5rJkagcVg0Wqjh89NhCaBA8VyRt3ovlGyCKdNV2UL3bn5vdFsTk7qqmp9makz1/SuVXYxIf6L6+8RXOatXWaPkmucuLE1TPOeP7S1N5JToFCs80l2D2EtxoQXGCR48K/cTUR5zV/fQ+hdIOzoo0nFn77Y8Ydd2k7/x9BE78pmoeMnw6VXYfXCuWEgj6p7jpbLoxQMoWMCVzlg72WVNhJFlSw4aD8fc6ezeECAwEAAaOCATQwggEwMBIGA1UdEwEB/wQIMAYBAf8CAQAwNQYDVR0fBC4wLDAqoCigJoYkaHR0cDovL2NybC5hZG9iZS5jb20vYWRvYmVyb290ZzIuY3JsMA4GA1UdDwEB/wQEAwIBBjAUBgNVHSUEDTALBgkqhkiG9y8BAQcwVwYDVR0gBFAwTjBMBgkqhkiG9y8BAgMwPzA9BggrBgEFBQcCARYxaHR0cHM6Ly93d3cuYWRvYmUuY29tL21pc2MvcGtpL3Byb2Rfc3ZjZV9jcHMuaHRtbDAkBgNVHREEHTAbpBkwFzEVMBMGA1UEAxMMU1lNQy00MDk2LTMzMB0GA1UdDgQWBBRXKXoyTcz+5DVOwB8kc85zU6vfajAfBgNVHSMEGDAWgBSmHOFtVCRMqI9Icr9uqYzV5Owx1DANBgkqhkiG9w0BAQsFAAOCAgEAcc7lB4ym3C3cyOA7ZV4AkoGV65UgJK+faThdyXzxuNqlTQBlOyXBGFyevlm33BsGO1mDJfozuyLyT2+7IVxWFvW5yYMV+5S1NeChMXIZnCzWNXnuiIQSdmPD82TEVCkneQpFET4NDwSxo8/ykfw6Hx8fhuKz0wjhjkWMXmK3dNZXIuYVcbynHLyJOzA+vWU3sH2T0jPtFp7FN39GZne4YG0aVMlnHhtHhxaXVCiv2RVoR4w1QtvKHQpzfPObR53Cl74iLStGVFKPwCLYRSpYRF7J6vVS/XxW4LzvN2b6VEKOcvJmN3LhpxFRl3YYzW+dwnwtbuHW6WJlmjffbLm1MxLFGlG95aCz31X8wzqYNsvb9+5AXcv8Ll69tLXmO1OtsY/3wILNUEp4VLZTE3wqm3n8hMnClZiiKyZCS7L4E0mClbx+BRSMH3eVo6jgve41/fK3FQM4QCNIkpGs7FjjLy+ptC+JyyWqcfvORrFV/GOgB5hD+G5ghJcIpeigD/lHsCRYsOa5sFdqREhwIWLmSWtNwfLZdJ3dkCc7yRpm3gal6qRfTkYpxTNxxKyvKbkaJDoxR9vtWrC3iNrQd9VvxC3TXtuzoHbqumeqgcAqefWF9u6snQ4Q9FkXzeuJArNuSvPIhgBjVtggH0w0vm/lmCQYiC/Y12GeCxfgYlL33buiZnNpZ1RzdKFpdHN0VG9rZW5zgaFjdmFsWQ45MIIONTADAgEAMIIOLAYJKoZIhvcNAQcCoIIOHTCCDhkCAQMxDzANBglghkgBZQMEAgEFADCBggYLKoZIhvcNAQkQAQSgcwRxMG8CAQEGCWCGSAGG/WwHATAxMA0GCWCGSAFlAwQCAQUABCDsEvopzsTWhzzbsSkiNcSUP9C08LGtvXDj0xy3IFdLFAIRAKUh90vTQbM1wKeZPBAi5hkYDzIwMjQxMTIyMDE1ODAwWgIIWYIFqRqCDiqgggvAMIIFCjCCAvKgAwIBAgIQDAsvx3p4z7rtZVZUwZokAzANBgkqhkiG9w0BAQsFADBjMQswCQYDVQQGEwJVUzEXMBUGA1UEChMORGlnaUNlcnQsIEluYy4xOzA5BgNVBAMTMkRpZ2lDZXJ0IFRydXN0ZWQgRzQgUlNBNDA5NiBTSEEyNTYgVGltZVN0YW1waW5nIENBMB4XDTI0MTEyMDAwMDAwMFoXDTM2MDIxOTIzNTk1OVowWzELMAkGA1UEBhMCVVMxETAPBgNVBAoTCERpZ2lDZXJ0MTkwNwYDVQQDEzBFQ0MyNTZfU0hBMjU2X1RpbWVzdGFtcF9SZXNwb25kZXJfQWRvYmVfTk9WXzIwMjQwWTATBgcqhkjOPQIBBggqhkjOPQMBBwNCAATQ/B6F+IGYpiqQQLxOfqkUmeTmSRWZzxSCtwM82siW/SbXazktRyEWmwIVs+8PJjhV9C4fUJ23IGRxsfzJM8leo4IBizCCAYcwDgYDVR0PAQH/BAQDAgeAMAwGA1UdEwEB/wQCMAAwFgYDVR0lAQH/BAwwCgYIKwYBBQUHAwgwIAYDVR0gBBkwFzAIBgZngQwBBAIwCwYJYIZIAYb9bAcBMB8GA1UdIwQYMBaAFLoW2W1NhS9zKXaaL3WMaiCPnshvMB0GA1UdDgQWBBTs0RxvfOegTeQxP4cACNSt1H02uzBaBgNVHR8EUzBRME+gTaBLhklodHRwOi8vY3JsMy5kaWdpY2VydC5jb20vRGlnaUNlcnRUcnVzdGVkRzRSU0E0MDk2U0hBMjU2VGltZVN0YW1waW5nQ0EuY3JsMIGQBggrBgEFBQcBAQSBgzCBgDAkBggrBgEFBQcwAYYYaHR0cDovL29jc3AuZGlnaWNlcnQuY29tMFgGCCsGAQUFBzAChkxodHRwOi8vY2FjZXJ0cy5kaWdpY2VydC5jb20vRGlnaUNlcnRUcnVzdGVkRzRSU0E0MDk2U0hBMjU2VGltZVN0YW1waW5nQ0EuY3J0MA0GCSqGSIb3DQEBCwUAA4ICAQCi7MEg8nkvLauLI7cAj21DgnMErh0mntCt4c4tsW9yJQZdZv1n8E1dueayb6IiZ8mYambImrTeuVKwGqUSITZTiVhtFRP3zRD9DpFk+Ex4P010IStH/eD1lgK6bVfaY0gvzcIRQP3CwIzqBZAE81c5QINjPs81cvJLOFKd/cX7zOhoQvrziNDy15UNT5fuURe2fioANQsRNYOmVXAdg2TK7OktYD+EH/D8gWr7nHQhRJMuD54GNjiZnNPnYXz6F3j7Bu2aVlirvQGAAsrW27Lqhg9ksW5+aL+g9/lyqRoMrWLSy4KDQaztPB+PKskecO1R7dbJbw7UBFVl+GbGaUc4x6HvVLNNL5hHjiLrf9A4zxe52e9ZqpSU7kDu7dsRXvm+uLLMXjHFSx/j0stIcxnQHwOL4A5RRuUH1Xw1wz2CiGvIHNcoYrkqfkb6TsKJU7ntDqNKFKZ349sBErTdXwVoId4zS/cV/A5rO1Kw5aNO/zUTCtQkbcMg88XGWqImaYmIHhIvHaE1nRdPWCa0QhrxvioeP45p4/zqd/JrVbNsoEuEBSRIPB3+ViLaoFlimZRUePzwKYvyTrd6g72mVtF4Prbbvy1kqCUmsZDMFqn33DR0N8Qzqkzir3bufNyI5k95Rq3NXcbfNYDx9qZ8gjCu4NHtSxAdJKswzb9gi6jyFTCCBq4wggSWoAMCAQICEAc2N7ckVHzYR6z9KGYqXlswDQYJKoZIhvcNAQELBQAwYjELMAkGA1UEBhMCVVMxFTATBgNVBAoTDERpZ2lDZXJ0IEluYzEZMBcGA1UECxMQd3d3LmRpZ2ljZXJ0LmNvbTEhMB8GA1UEAxMYRGlnaUNlcnQgVHJ1c3RlZCBSb290IEc0MB4XDTIyMDMyMzAwMDAwMFoXDTM3MDMyMjIzNTk1OVowYzELMAkGA1UEBhMCVVMxFzAVBgNVBAoTDkRpZ2lDZXJ0LCBJbmMuMTswOQYDVQQDEzJEaWdpQ2VydCBUcnVzdGVkIEc0IFJTQTQwOTYgU0hBMjU2IFRpbWVTdGFtcGluZyBDQTCCAiIwDQYJKoZIhvcNAQEBBQADggIPADCCAgoCggIBAMaGNQZJs8E9cklRVcclA8TykTepl1Gh1tKD0Z5Mom2gsMyD+Vr2EaFEFUJfpIjzaPp985yJC3+dH54PMx9QEwsmc5Zt+FeoAn39Q7SE2hHxc7Gz7iuAhIoiGN/r2j3EF3+rGSs+QtxnjupRPfDWVtTnKC3r07G1decfBmWNlCnT2exp39mQh0YAe9tEQYncfGpXevA3eZ9drMvohGS0UvJ2R/dhgxndX7RUCyFobjchu0CsX7LeSn3O9TkSZ+8OpWNs5KbFHc02DVzV5huowWR0QKfAcsW6Th+xtVhNef7Xj3OTrCw54qVI1vCwMROpVymWJy71h6aPTnYVVSZwmCZ/oBpHIEPjQ2OAe3VuJyWQmDo4EbP29p7mO1vsgd4iFNmCKseSv6De4z6ic/rnH1pslPJSlRErWHRAKKtzQ87fSqEcazjFKfPKqpZzQmiftkaznTqj1QPgv/CiPMpC3BhIfxQ0z9JMq++bPf4OuGQq+nUoJEHtQr8FnGZJUlD0UfM2SU2LINIsVzV5K6jzRWC8I41Y99xh3pP+OcD5sjClTNfpmEpYPtMDiP6zj9NeS3YSUZPJjAw7W4oiqMEmCPkUEBIDfV8ju2TjY+Cm4T72wnSyPx4JduyrXUZ14mCjWAkBKAAOhFTuzuldyF4wEr1GnrXTdrnSDmuZDNIztM2xAgMBAAGjggFdMIIBWTASBgNVHRMBAf8ECDAGAQH/AgEAMB0GA1UdDgQWBBS6FtltTYUvcyl2mi91jGogj57IbzAfBgNVHSMEGDAWgBTs1+OC0nFdZEzfLmc/57qYrhwPTzAOBgNVHQ8BAf8EBAMCAYYwEwYDVR0lBAwwCgYIKwYBBQUHAwgwdwYIKwYBBQUHAQEEazBpMCQGCCsGAQUFBzABhhhodHRwOi8vb2NzcC5kaWdpY2VydC5jb20wQQYIKwYBBQUHMAKGNWh0dHA6Ly9jYWNlcnRzLmRpZ2ljZXJ0LmNvbS9EaWdpQ2VydFRydXN0ZWRSb290RzQuY3J0MEMGA1UdHwQ8MDowOKA2oDSGMmh0dHA6Ly9jcmwzLmRpZ2ljZXJ0LmNvbS9EaWdpQ2VydFRydXN0ZWRSb290RzQuY3JsMCAGA1UdIAQZMBcwCAYGZ4EMAQQCMAsGCWCGSAGG/WwHATANBgkqhkiG9w0BAQsFAAOCAgEAfVmOwJO2b5ipRCIBfmbW2CFC4bAYLhBNE88wU86/GPvHUF3iSyn7cIoNqilp/GnBzx0H6T5gyNgL5Vxb122H+oQgJTQxZ822EpZvxFBMYh0MCIKoFr2pVs8Vc40BIiXOlWk/R3f7cnQU1/+rT4osequFzUNf7WC2qk+RZp4snuCKrOX9jLxkJodskr2dfNBwCnzvqLx1T7pa96kQsl3p/yhUifDVinF2ZdrM8HKjI/rAJ4JErpknG6skHibBt94q6/aesXmZgaNWhqsKRcnfxI2g55j7+6adcq/Ex8HBanHZxhOACcS2n82HhyS7T6NJuXdmkfFynOlLAlKnN36TU6w7HQhJD5TNOXrd/yVjmScsPT9rp/Fmw0HNT7ZAmyEhQNC3EyTN3B14OuSereU0cZLXJmvkOHOrpgFPvT87eK1MrfvElXvtCl8zOYdBeHo46Zzh3SP9HSjTx/no8Zhf+yvYfvJGnXUsHicsJttvFXseGYs2uJPU5vIXmVnKcPA3v5gA3yAWTyf7YGcWoWa63VXAOimGsJigK+2VQbc61RWYMbRiCQ8KvYHZE/6/pNHzV9m8BPqC3jLfBInwAM1dwvnQI38AC+R2AibZ8GV2QqYphwlHK+Z/GqSFD/yYlvZVVCsfgPrA8g4r5db7qS9EFUrnEw4d2zc4GqEr9u3WfPwxggG4MIIBtAIBATB3MGMxCzAJBgNVBAYTAlVTMRcwFQYDVQQKEw5EaWdpQ2VydCwgSW5jLjE7MDkGA1UEAxMyRGlnaUNlcnQgVHJ1c3RlZCBHNCBSU0E0MDk2IFNIQTI1NiBUaW1lU3RhbXBpbmcgQ0ECEAwLL8d6eM+67WVWVMGaJAMwDQYJYIZIAWUDBAIBBQCggdEwGgYJKoZIhvcNAQkDMQ0GCyqGSIb3DQEJEAEEMBwGCSqGSIb3DQEJBTEPFw0yNDExMjIwMTU4MDBaMCsGCyqGSIb3DQEJEAIMMRwwGjAYMBYEFPcTAlRkG5zO0lEtYsW/nymEjPz4MC8GCSqGSIb3DQEJBDEiBCA7ZxZ5KENnbzIJoJBR1K0Ci9utvWO8bbBMncQhtOAPMzA3BgsqhkiG9w0BCRACLzEoMCYwJDAiBCC5eiZoHRjpuXxjPvhIOWRVdZeW2lBDRCyPjM3lJ+AAqTAKBggqhkjOPQQDAgRHMEUCIQDyV6ot5/7lvZGEWkURXJeur7KjMnVO3RXJt6fEEfJ4agIgEVuoUZCEEH3dQu/rd2jNZAPF6X6iXrB5BFBE1v8Xt7RjcGFkWROEAAAAAAAAAAAAAAAAAAAAAAAAAAAAAAAAAAAAAAAAAAAAAAAAAAAAAAAAAAAAAAAAAAAAAAAAAAAAAAAAAAAAAAAAAAAAAAAAAAAAAAAAAAAAAAAAAAAAAAAAAAAAAAAAAAAAAAAAAAAAAAAAAAAAAAAAAAAAAAAAAAAAAAAAAAAAAAAAAAAAAAAAAAAAAAAAAAAAAAAAAAAAAAAAAAAAAAAAAAAAAAAAAAAAAAAAAAAAAAAAAAAAAAAAAAAAAAAAAAAAAAAAAAAAAAAAAAAAAAAAAAAAAAAAAAAAAAAAAAAAAAAAAAAAAAAAAAAAAAAAAAAAAAAAAAAAAAAAAAAAAAAAAAAAAAAAAAAAAAAAAAAAAAAAAAAAAAAAAAAAAAAAAAAAAAAAAAAAAAAAAAAAAAAAAAAAAAAAAAAAAAAAAAAAAAAAAAAAAAAAAAAAAAAAAAAAAAAAAAAAAAAAAAAAAAAAAAAAAAAAAAAAAAAAAAAAAAAAAAAAAAAAAAAAAAAAAAAAAAAAAAAAAAAAAAAAAAAAAAAAAAAAAAAAAAAAAAAAAAAAAAAAAAAAAAAAAAAAAAAAAAAAAAAAAAAAAAAAAAAAAAAAAAAAAAAAAAAAAAAAAAAAAAAAAAAAAAAAAAAAAAAAAAAAAAAAAAAAAAAAAAAAAAAAAAAAAAAAAAAAAAAAAAAAAAAAAAAAAAAAAAAAAAAAAAAAAAAAAAAAAAAAAAAAAAAAAAAAAAAAAAAAAAAAAAAAAAAAAAAAAAAAAAAAAAAAAAAAAAAAAAAAAAAAAAAAAAAAAAAAAAAAAAAAAAAAAAAAAAAAAAAAAAAAAAAAAAAAAAAAAAAAAAAAAAAAAAAAAAAAAAAAAAAAAAAAAAAAAAAAAAAAAAAAAAAAAAAAAAAAAAAAAAAAAAAAAAAAAAAAAAAAAAAAAAAAAAAAAAAAAAAAAAAAAAAAAAAAAAAAAAAAAAAAAAAAAAAAAAAAAAAAAAAAAAAAAAAAAAAAAAAAAAAAAAAAAAAAAAAAAAAAAAAAAAAAAAAAAAAAAAAAAAAAAAAAAAAAAAAAAAAAAAAAAAAAAAAAAAAAAAAAAAAAAAAAAAAAAAAAAAAAAAAAAAAAAAAAAAAAAAAAAAAAAAAAAAAAAAAAAAAAAAAAAAAAAAAAAAAAAAAAAAAAAAAAAAAAAAAAAAAAAAAAAAAAAAAAAAAAAAAAAAAAAAAAAAAAAAAAAAAAAAAAAAAAAAAAAAAAAAAAAAAAAAAAAAAAAAAAAAAAAAAAAAAAAAAAAAAAAAAAAAAAAAAAAAAAAAAAAAAAAAAAAAAAAAAAAAAAAAAAAAAAAAAAAAAAAAAAAAAAAAAAAAAAAAAAAAAAAAAAAAAAAAAAAAAAAAAAAAAAAAAAAAAAAAAAAAAAAAAAAAAAAAAAAAAAAAAAAAAAAAAAAAAAAAAAAAAAAAAAAAAAAAAAAAAAAAAAAAAAAAAAAAAAAAAAAAAAAAAAAAAAAAAAAAAAAAAAAAAAAAAAAAAAAAAAAAAAAAAAAAAAAAAAAAAAAAAAAAAAAAAAAAAAAAAAAAAAAAAAAAAAAAAAAAAAAAAAAAAAAAAAAAAAAAAAAAAAAAAAAAAAAAAAAAAAAAAAAAAAAAAAAAAAAAAAAAAAAAAAAAAAAAAAAAAAAAAAAAAAAAAAAAAAAAAAAAAAAAAAAAAAAAAAAAAAAAAAAAAAAAAAAAAAAAAAAAAAAAAAAAAAAAAAAAAAAAAAAAAAAAAAAAAAAAAAAAAAAAAAAAAAAAAAAAAAAAAAAAAAAAAAAAAAAAAAAAAAAAAAAAAAAAAAAAAAAAAAAAAAAAAAAAAAAAAAAAAAAAAAAAAAAAAAAAAAAAAAAAAAAAAAAAAAAAAAAAAAAAAAAAAAAAAAAAAAAAAAAAAAAAAAAAAAAAAAAAAAAAAAAAAAAAAAAAAAAAAAAAAAAAAAAAAAAAAAAAAAAAAAAAAAAAAAAAAAAAAAAAAAAAAAAAAAAAAAAAAAAAAAAAAAAAAAAAAAAAAAAAAAAAAAAAAAAAAAAAAAAAAAAAAAAAAAAAAAAAAAAAAAAAAAAAAAAAAAAAAAAAAAAAAAAAAAAAAAAAAAAAAAAAAAAAAAAAAAAAAAAAAAAAAAAAAAAAAAAAAAAAAAAAAAAAAAAAAAAAAAAAAAAAAAAAAAAAAAAAAAAAAAAAAAAAAAAAAAAAAAAAAAAAAAAAAAAAAAAAAAAAAAAAAAAAAAAAAAAAAAAAAAAAAAAAAAAAAAAAAAAAAAAAAAAAAAAAAAAAAAAAAAAAAAAAAAAAAAAAAAAAAAAAAAAAAAAAAAAAAAAAAAAAAAAAAAAAAAAAAAAAAAAAAAAAAAAAAAAAAAAAAAAAAAAAAAAAAAAAAAAAAAAAAAAAAAAAAAAAAAAAAAAAAAAAAAAAAAAAAAAAAAAAAAAAAAAAAAAAAAAAAAAAAAAAAAAAAAAAAAAAAAAAAAAAAAAAAAAAAAAAAAAAAAAAAAAAAAAAAAAAAAAAAAAAAAAAAAAAAAAAAAAAAAAAAAAAAAAAAAAAAAAAAAAAAAAAAAAAAAAAAAAAAAAAAAAAAAAAAAAAAAAAAAAAAAAAAAAAAAAAAAAAAAAAAAAAAAAAAAAAAAAAAAAAAAAAAAAAAAAAAAAAAAAAAAAAAAAAAAAAAAAAAAAAAAAAAAAAAAAAAAAAAAAAAAAAAAAAAAAAAAAAAAAAAAAAAAAAAAAAAAAAAAAAAAAAAAAAAAAAAAAAAAAAAAAAAAAAAAAAAAAAAAAAAAAAAAAAAAAAAAAAAAAAAAAAAAAAAAAAAAAAAAAAAAAAAAAAAAAAAAAAAAAAAAAAAAAAAAAAAAAAAAAAAAAAAAAAAAAAAAAAAAAAAAAAAAAAAAAAAAAAAAAAAAAAAAAAAAAAAAAAAAAAAAAAAAAAAAAAAAAAAAAAAAAAAAAAAAAAAAAAAAAAAAAAAAAAAAAAAAAAAAAAAAAAAAAAAAAAAAAAAAAAAAAAAAAAAAAAAAAAAAAAAAAAAAAAAAAAAAAAAAAAAAAAAAAAAAAAAAAAAAAAAAAAAAAAAAAAAAAAAAAAAAAAAAAAAAAAAAAAAAAAAAAAAAAAAAAAAAAAAAAAAAAAAAAAAAAAAAAAAAAAAAAAAAAAAAAAAAAAAAAAAAAAAAAAAAAAAAAAAAAAAAAAAAAAAAAAAAAAAAAAAAAAAAAAAAAAAAAAAAAAAAAAAAAAAAAAAAAAAAAAAAAAAAAAAAAAAAAAAAAAAAAAAAAAAAAAAAAAAAAAAAAAAAAAAAAAAAAAAAAAAAAAAAAAAAAAAAAAAAAAAAAAAAAAAAAAAAAAAAAAAAAAAAAAAAAAAAAAAAAAAAAAAAAAAAAAAAAAAAAAAAAAAAAAAAAAAAAAAAAAAAAAAAAAAAAAAAAAAAAAAAAAAAAAAAAAAAAAAAAAAAAAAAAAAAAAAAAAAAAAAAAAAAAAAAAAAAAAAAAAAAAAAAAAAAAAAAAAAAAAAAAAAAAAAAAAAAAAAAAAAAAAAAAAAAAAAAAAAAAAAAAAAAAAAAAAAAAAAAAAAAAAAAAAAAAAAAAAAAAAAAAAAAAAAAAAAAAAAAAAAAAAAAAAAAAAAAAAAAAAAAAAAAAAAAAAAAAAAAAAAAAAAAAAAAAAAAAAAAAAAAAAAAAAAAAAAAAAAAAAAAAAAAAAAAAAAAAAAAAAAAAAAAAAAAAAAAAAAAAAAAAAAAAAAAAAAAAAAAAAAAAAAAAAAAAAAAAAAAAAAAAAAAAAAAAAAAAAAAAAAAAAAAAAAAAAAAAAAAAAAAAAAAAAAAAAAAAAAAAAAAAAAAAAAAAAAAAAAAAAAAAAAAAAAAAAAAAAAAAAAAAAAAAAAAAAAAAAAAAAAAAAAAAAAAAAAAAAAAAAAAAAAAAAAAAAAAAAAAAAAAAAAAAAAAAAAAAAAAAAAAAAAAAAAAAAAAAAAAAAAAAAAAAAAAAAAAAAAAAAAAAAAAAAAAAAAAAAAAAAAAAAAAAAAAAAAAAAAAAAAAAAAAAAAAAAAAAAAAAAAAAAAAAAAAAAAAAAAAAAAAAAAAAAAAAAAAAAAAAAAAAAAAAAAAAAAAAAAAAAAAAAAAAAAAAAAAAAAAAAAAAAAAAAAAAAAAAAAAAAAAAAAAAAAAAAAAAAAAAAAAAAAAAAAAAAAAAAAAAAAAAAAAAAAAAAAAAAAAAAAAAAAAAAAAAAAAAAAAAAAAAAAAAAAAAAAAAAAAAAAAAAAAAAAAAAAAAAAAAAAAAAAAAAAAAAAAAAAAAAAAAAAAAAAAAAAAAAAAAAAAAAAAAAAAAAAAAAAAAAAAAAAAAAAAAAAAAAAAAAAAAAAAAAAAAAAAAAAAAAAAAAAAAAAAAAAAAAAAAAAAAAAAAAAAAAAAAAAAAAAAAAAAAAAAAAAAAAAAAAAAAAAAAAAAAAAAAAAAAAAAAAAAAAAAAAAAAAAAAAAAAAAAAAAAAAAAAAAAAAAAAAAAAAAAAAAAAAAAAAAAAAAAAAAAAAAAAAAAAAAAAAAAAAAAAAAAAAAAAAAAAAAAAAAAAAAAAAAAAAAAAAAAAAAAAAAAAAAAAAAAAAAAAAAAAAAAAAAAAAAAAAAAAAAAAAAAAAAAAAAAAAAAAAAAAAAAAAAAAAAAAAAAAAAAAAAAAAAAAAAAAAAAAAAAAAAAAAAAAAAAAAAAAAAAAAAAAAAAAAAAAAAAAAAAAAAAAAAAAAAAAAAAAAAAAAAAAAAAAAAAAAAAAAAAAAAAAAAAAAAAAAAAAAAAAAAAAAAAAAAAAAAAAAAAAAAAAAAAAAAAAAAAAAAAAAAAAAAAAAAAAAAAAAAAAAAAAAAAAAAAAAAAAAAAAAAAAAAAAAAAAAAAAAAAAAAAAAAAAAAAAAAAAAAAAAAAAAAAAAAAAAAAAAAAAAAAAAAAAAAAAAAAAAAAAAAAAAAAAAAAAAAAAAAAAAAAAAAAAAAAAAAAAAAAAAAAAAAAAAAAAAAAAAAAAAAAAAAAAAAAAAAAAAAAAAAAAAAAAAAAAAAAAAAAAAAAAAAAAAAAAAAAAAAAAAAAAAAAAAAAAAAAAAAAAAAAAAAAAAAAAAAAAAAAAAAAAAAAAAAAAAAAAAAAAAAAAAAAAAAAAAAAAAAAAAAAAAAAAAAAAAAAAAAAAAAAAAAAAAAAAAAAAAAAAAAAAAAAAAAAAAAAAAAAAAAAAAAAAAAAAAAAAAAAAAAAAAAAAAAAAAAAAAAAAAAAAAAAAAAAAAAAAAAAAAAAAAAAAAAAAAAAAAAAAAAAAAAAAAAAAAAAAAAAAAAAAAAAAAAAAAAAAAAAAAAAAAAAAAAAAAAAAAAAAAAAAAAAAAAAAAAAAAAAAAAAAAAAAAAAAAAAAAAAAAAAAAAAAAAAAAAAAAAAAAAAAAAAAAAAAAAAAAAAAAAAAAAAAAAAAAAAAAAAAAAAAAAAAAAAAAAAAAAAAAAAAAAAAAAAAAAAAAAAAAAAAAAAAAAAAAAAAAAAAAAAAAAAAAAAAAAAAAAAAAAAAAAAAAAAAAAAAAAAAAAAAAAAAAAAAAAAAAAAAAAAAAAAAAAAAAAAAAAAAAAAAAAAAAAAAAAAAAAAAAAAAAAAAAAAAAAAAAAAAAAAAAAAAAAAAAAAAAAAAAAAAAAAAAAAAAAAAAAAAAAAAAAAAAAAAAAAAAAAAAAAAAAAAAAAAAAAAAAAAAAAAAAAAAAAAAAAAAAAAAAAAAAAAAAAAAAAAAAAAAAAAAAAAAAAAAAAAAAAAAAAAAAAAAAAAAAAAAAAAAAAAAAAAAAAAAAAAAAAAAAAAAAAAAAAAAAAAAAAAAAAAAAAAAAAAAAAAAAAAAAAAAAAAAAAAAAAAAAAAAAAAAAAAAAAAAAAAAAAAAAAAAAAAAAAAAAAAAAAAAAAAAAAAAAAAAAAAAAAAAAAAAAAAAAAAAAAAAAAAAAAAAAAAAAAAAAAAAAAAAAAAAAAAAAAAAAAAAAAAAAAAAAAAAAAAAAAAAAAAAAAAAAAAAAAAAAAAAAAAAAAAAAAAAAAAAAAAAAAAAAAAAAAAAAAAAAAAAAAAAAAAAAAAAAAAAAAAAAAAAAAAAAAAAAAAAAAAAAAAAAAAAAAAAAAAAAAAAAAAAAAAAAAAAAAAAAAAAAAAAAAAAAAAAAAAAAAAAAAAAAAAAAAAAAAAAAAAAAAAAAAAAAAAAAAAAAAAAAAAAAAAAAAAAAAAAAAAAAAAAAAAAAAAAAAAAAAAAAAAAAAAAAAAAAAAAAAAAAAAAAAAAAAAAAAAAAAAAAAAAAAAAAAAAAAAAAAAAAAAAAAAAAAAAAAAAAAAAAAAAAAAAAAAAAAAAAAAAAAAAAAAAAAAAAAAAAAAAAAAAAAAAAAAAAAAAAAAAAAAAAAAAAAAAAAAAAAAAAAAAAAAAAAAAAAAAAAAAAAAAAAAAAAAAAAAAAAAAAAAAAAAAAAAAAAAAAAAAAAAAAAAAAAAAAAAAAAAAAAAAAAAAAAAAAAAAAAAAAAAAAAAAAAAAAAAAAAAAAAAAAAAAAAAAAAAAAAAAAAAAAAAAAAAAAAAAAAAAAAAAAAAAAAAAAAAAAAAAAAAAAAAAAAAAAAAAAAAAAAAAAAAAAAAAAAAAAAAAAAAAAAAAAAAAAAAAAAAAAAAAAAAAAAAAAAAAAAAAAAAAAAAAAAAAAAAAAAAAAAAPZZAQC5mds5bKMZv8A5YXJ5iQ+fgu56yxbimn2ryGwzGcy+1RMeIMvGrTC0l+uVEXVQ6bB6jF8nrXVULkBVSH0RYdVAPF92L04fnUzJoUK0IGDeorhki2b38zRY+7HOn2Ia8qJ/UmIGjcFR8S6JSgiVnG7Ikp0hkbKzi057kKFqyce2CEILuTMR+PaUVMpam+ZBN8oO5UFkdQzdaiP9e9c7Vu881Zov/C7Ixa7uR0Zw7SfjPaOslhzZchdxUmBh1B4cAcL9EzsYEVj4ABMWDTFnRusObkUCdI/lKpRaYHh3jeNwBfGSUUMG3qiUbaxyqJg5ywcPRa2XZ19MySGIyfPLMH6b</c2pa:manifest></metadata>
  <defs>
    <style>
      .cls-1 {
        fill: #39474f;
      }
    </style>
  </defs>
  <polygon class="cls-1" points="27.61 15.12 27.62 15.11 27.61 15.11 27.61 15.12 27.61 15.12"/>
  <path class="cls-1" d="M27.12,15.51s.07.06.12.09c.03.02.07.03.11.05.01,0,.02,0,.04.01.1.03.19.02.29,0,.06-.01.12-.04.18-.07.04-.02.08-.05.11-.08.01-.01.03-.02.04-.04.04-.05.08-.1.11-.16.05-.1.06-.17.07-.28,0-.02,0-.03,0-.05,0-.05,0-.1-.02-.14-.03-.1-.07-.16-.14-.24-.03-.03-.07-.06-.1-.08-.01,0-.03-.02-.04-.03-.04-.02-.08-.04-.12-.05-.02,0-.03,0-.05-.01,0,0-.01,0-.02,0-.05-.02-.09-.03-.14-.03-.05,0-.08.02-.12.03-.02,0-.04,0-.06,0-.01,0-.03.01-.04.02-.02,0-.05,0-.08.02-.02,0-.03.02-.05.03-.04.03-.08.06-.12.1,0,0,0,0,0,0,0,0,0,0,0,0-.07.07-.11.15-.14.24,0,0,0,0,0,0-.01.03-.01.06-.02.1,0,.04-.01.07,0,.11,0,.11.03.19.08.29.03.06.08.12.13.16ZM27.61,15.11s.03-.03.03-.06h0s0,.03-.01.04c0,0,0,0,0,.01,0,0,0,0,0,0,0,0,0,0,0,0,0,0,0,0,0,0,0,0,0,0,0,0,0,0,0,0,0,0,0,0,0,0,0,0,0,0,0,0,0,0,0,0-.02,0-.02.01-.01,0-.02,0-.03,0,.03,0,.04-.02.07-.03Z"/>
  <path class="cls-1" d="M23.64,10.65s0,0,0,0c0,0,0,0,0,0,0,0,0,0,0,0Z"/>
  <path class="cls-1" d="M21.84,9.51c.07.11.15.18.26.25.07.05.16.09.25.11.09.03.19.04.29.04.08,0,.16-.01.23-.05.1-.04.17-.11.23-.2.07-.1.09-.22.1-.34.01-.1,0-.2-.02-.3-.03-.13-.09-.24-.18-.33-.08-.09-.19-.15-.3-.2-.08-.03-.16-.04-.25-.03-.02-.01-.05-.03-.07-.04-.03,0-.07,0-.1-.01-.07,0-.13.02-.19.05-.1.05-.18.13-.25.22-.05.07-.08.15-.1.23-.03.12-.02.22,0,.34,0,.03.01.05.02.08.02.05.04.11.08.16Z"/>
  <path class="cls-1" d="M12.08,24.73c-.02.46-.05.92-.07,1.38-.01.24.25.42.47.36.97-.27,1.98-.28,2.98-.28.06,3.7.11,7.41.17,11.11.02,1.08.02,2.15.05,3.23.02.6.07,1.29.55,1.71.49.42,1.17.37,1.69.03.16-.11.3-.24.41-.39.09.26.23.5.45.69.44.4,1.12.53,1.61.16.51-.38.58-1.04.61-1.62.04-1.1,0-2.2.07-3.3.22-3.32,1.65-6.33,3.25-9.21-.13.5-.26,1-.39,1.5-.51,2.03-1.05,4.04-1.64,6.04-.51,1.76-1.14,3.82-.69,5.66.17.71.74,1.17,1.49,1.05.44-.07.78-.3,1.05-.6.04.27.11.53.25.77.3.55.92.83,1.44.35.49-.45.46-1.35.64-1.95.25-.86.62-1.68,1.08-2.46.89-1.49,2.07-2.77,3.33-3.95.95-.88,1.89-1.73,2.67-2.74.53.32,1.07.62,1.63.9.54.27,1.09.53,1.64.78.34.16.68.34,1.07.31.51-.05.82-.55.67-.98.05-.18,0-.4-.24-.48-1.39-.47-2.65-1.18-3.89-1.94.8-1.53,1.43-3.24,1.81-4.91.37-1.62.45-3.36-.15-4.93-.53-1.4-1.54-2.34-2.75-3.17-.64-.44-1.32-.84-1.91-1.36-.45-.4-.77-.86-1.08-1.34.08-.02.16-.06.24-.11.58-.41,1-.99,1.26-1.64.13-.32-.32-.59-.57-.41.17-.49.27-1.01.28-1.54,0-.41-.65-.52-.73-.1-.02.11-.08.19-.12.28-.06-.55-.21-1.09-.45-1.6h0s0,0,0,0c-.01-.03-.02-.06-.04-.09-.08-.16-.31-.22-.46-.15-.18.08-.24.25-.22.44.09.65.2,1.38-.06,2.01-.19.45-.67.91-1.19.81-.05,0-.1,0-.14,0-.82-.25-1.71-.16-2.55-.05-.65.08-1.27.27-1.58.88-.01-.7.27-1.37.58-1.99.04.04.08.07.11.11,0,0,.07.09.03.03.02.03.04.06.06.08.04.06.06.12.09.18.06.13.24.19.37.18.16-.02.25-.12.31-.27.29-.74.34-1.58.17-2.35-.03-.11-.08-.21-.15-.29.21-.8-.04-1.71-.7-2.25-1.12-.9-2.85-.41-4.13-.23-.55.08-1.34.03-1.72.5-.02,0-.03-.01-.05-.01-1.04-.12-2.24-.55-2.66-1.6-.17-.44-.84-.28-.72.2,0,.02.02.04.02.06-.12-.18-.22-.37-.3-.57-.08-.19-.25-.32-.46-.26-.18.05-.33.27-.26.46.14.35.3.68.48,1.01-.25-.02-.51.3-.36.57.74,1.35,2,2.27,3.23,3.15.07.05.15.06.22.05-.38,1.56-.78,3.1-1.29,4.63-.56,1.66-1.06,3.3-1.27,5.05-.16,1.41-.17,2.84-.16,4.26-.96-.04-1.93-.05-2.88-.19-.25-.04-.46.09-.47.36ZM17.97,8.56s-.01.03-.02.04c-.02-.03-.03-.06-.05-.08.02.01.05.02.07.03,0,0,0,0,0,.02ZM23.57,28.23c-.05.09-.05.18-.03.26-1.12,2.03-2.14,4.12-2.73,6.37-.41,1.58-.53,3.17-.54,4.79,0,.41,0,.81,0,1.22,0,.34.03.84-.18,1.13-.34.48-.9.04-1.06-.36-.16-.41-.1-.89-.06-1.32.03-.42-.63-.5-.73-.1-.15.57-.38,1.55-1.13,1.57-.77.02-.67-1.15-.68-1.64-.02-1.53-.05-3.06-.07-4.59-.05-3.02-.09-6.04-.14-9.06,0-.1,0-.19,0-.29.57.01,1.14.05,1.71.11-.03.31-.05.61-.05.92,0,.42.62.5.73.1.09-.3.12-.61.15-.93.06,0,.12.02.18.03-.03.27-.04.54-.06.82,0,.18.15.34.32.37.19.02.35-.09.41-.27.08-.24.14-.5.19-.75.04,0,.08.01.13.02,0,.32,0,.65-.03.97-.02.2.18.37.37.37.21,0,.36-.17.37-.37.02-.26,0-.53.02-.79.68.17,1.35.37,2.01.58-.08.34-.17.68-.33.99-.09.18-.05.4.13.51.17.1.42.05.51-.13.18-.36.32-.74.42-1.13.13.04.27.08.4.13-.06.16-.13.33-.22.48ZM31.49,33.47c-1.02.96-2.07,1.88-2.99,2.95-.94,1.09-1.76,2.29-2.32,3.62-.27.64-.49,1.3-.62,1.99-.02.11-.03.46-.1.55-.14.03-.28.06-.43.1-.07-.14-.12-.28-.15-.43-.09-.4-.06-.82-.04-1.22.02-.36-.54-.52-.69-.19-.22.47-.45,1.05-.97,1.25-.88.34-.92-.74-.94-1.32-.04-1.14.2-2.27.49-3.37.6-2.24,1.27-4.46,1.84-6.71.21-.82.43-1.64.64-2.47.13.04.27.08.4.13-.03.14-.05.29-.06.44,0,0,0,0,0,.01h0s-.01.07-.01.1c-.02.18.16.35.32.37.18.02.36-.08.41-.27.04-.13.07-.26.11-.39.05.02.09.03.14.05-.04.17-.07.34-.11.51-.1.47.57.65.72.2.05-.15.09-.3.13-.45.04.02.08.03.12.04-.04.14-.08.28-.13.41-.07.19.08.41.26.46.21.06.39-.07.46-.26.04-.11.07-.22.1-.32.72.3,1.43.62,2.11,1.02.08.05.16.1.24.15-.07.19-.14.38-.2.58-.1.39.39.59.62.36-.03.04-.05.08-.07.12-.25.34.31.77.58.45.02-.02.04-.05.06-.08,0,0,0,0,0,0,0,0,0-.01.01-.02.15-.18.28-.36.41-.56.08.05.16.1.24.15-.14.18-.28.35-.44.51-.34.34.19.86.53.53.2-.2.38-.42.55-.64.06.04.13.07.19.11-.41.55-.87,1.07-1.4,1.56ZM30.91,31.2s.01-.02.02-.03c.03-.13.08-.26.13-.39.03.02.06.03.08.05-.08.12-.15.25-.23.37ZM24.75,14.06c.41-.43,1.45-.39,2-.41.72-.02,1.47.09,2.01.61.47.45.75,1.06,1.1,1.59,1.4,2.14,4.29,2.73,5.38,5.12.9,1.95.57,4.19-.11,6.25,0-.29-.02-.57-.03-.86-.05-1.44-.13-2.87-.26-4.3-.04-.47-.79-.48-.74,0,.12,1.33.2,2.66.25,3.99.04,1.19.25,2.63-.27,3.74-.02.05-.03.09-.03.13-.09.19-.18.36-.28.54-.1-.07-.21-.13-.31-.2.08-.35.06-.71-.24-.98-.13-.12-.3-.17-.47-.18.04-.3,0-.6-.28-.82-.26-.21-.63-.19-.91-.01-.2.13-.33.33-.45.54-.89-.51-1.8-.97-2.76-1.35,0-.19,0-.38-.06-.56-.12-.46-.63-.84-1.09-.55-.11.07-.18.17-.24.28-.02-.02-.05-.03-.07-.04.02-.14-.01-.29-.15-.37-.16-.1-.42-.05-.51.13-.06.12-.11.25-.17.38-.16-.04-.33-.09-.49-.13.21-.89.39-1.78.51-2.68.27-2.03.07-4.07-.55-6.01.34-.08.73-.08,1.02-.08.31,0,.5-.41.26-.64-.29-.27-.45-.68-.38-1.08.08-.14.08-.34-.05-.45-.39-.34-.77-.67-1.16-1.01-.19-.16-.45-.14-.58.08-.04.06-.06.14-.1.2-.04-.34-.02-.67.2-.9ZM24.87,10.68h0s0,0,0,0c.02-.02.02-.01,0,0ZM18.73,8.29s-.02.08-.03.11c0-.04,0-.08-.02-.12.02,0,.03,0,.05,0ZM16.87,17.63c.38-1.32.87-2.61,1.26-3.93.41-1.39.72-2.81,1.07-4.22.09-.36.14-.92.32-1.25.1-.17,0-.15.22-.26.16-.08.45-.07.62-.09.76-.1,1.53-.24,2.3-.31.68-.06,1.51-.05,1.96.56.3.4.34.9.19,1.34-.25.02-.49.07-.72.17-.12.05-.24.12-.34.19-.07.05-.13.09-.17.17-.02.04-.03.08-.04.12,0,0,0,0-.01.01-.1.19-.04.37.12.49,0,0,0,.01.02.02,0,0,0,0,0,0,.01.02.03.05.03.06,0,.01,0,.03.01.04,0,0,0,.04,0,.06,0,.02,0,.04,0,.06,0,.02-.01.04-.01.04-.01.02-.02.03-.02.04-.02.02-.04.04-.06.06-.11.09-.13.28-.08.41.06.13.19.23.34.23.01,0,.02,0,.03,0-.36.74-.67,1.52-.63,2.34.04.82.4,1.64.78,2.39-.14.71-.13,1.45.08,2.15.1.36.61.35.72,0,.02-.05.05-.1.07-.14.54,1.82.72,3.72.45,5.61-.11.74-.26,1.47-.42,2.2-.05.03-.11.07-.14.14-.02.03-.03.06-.05.08-.08-.02-.16-.04-.24-.06-.04-.09-.09-.19-.15-.28-.12-.17-.27-.36-.46-.46-.11-.06-.23-.07-.35-.05-.06-.11-.17-.18-.31-.18-.19,0-.38.17-.37.37,0,.06,0,.12,0,.18-.74-.18-1.48-.35-2.22-.52-.03-.39-.14-.79-.56-.89-.17-.04-.32-.02-.45.05-.12-.17-.27-.32-.5-.39-.16-.05-.34-.06-.49.03-.01,0-.02.02-.03.02-.05.02-.09.04-.13.09-.14.17-.24.37-.31.57-.54-.09-1.08-.17-1.62-.23-.04,0-.08,0-.11,0,1.35-2.25,1.76-4.9,2.11-7.46.06-.47-.65-.67-.72-.2-.31,2.24-.64,4.54-1.64,6.58.01-1.99.14-3.98.7-5.91Z"/>
</svg>