<svg xmlns="http://www.w3.org/2000/svg" viewBox="0 0 23 24" width="23" height="23"><path fill="currentColor" fill-rule="evenodd" d="M11.50002 15.47012c-2.11712 0-3.83335-1.73154-3.83335-3.8675 0-2.13602 1.71623-3.86756 3.83335-3.86756 2.11708 0 3.83331 1.73154 3.83331 3.86755 0 2.13597-1.71623 3.86751-3.8333 3.86751zM12.89015.00134c1.89293.00455 2.33617.02175 3.35129.06848 1.22404.05633 2.06001.25248 2.7915.53932.75622.29647 1.39755.6932 2.03692 1.33822.63931.64507 1.03254 1.29212 1.32643 2.0551.28426.738.47868 1.58144.5345 2.8164C22.98677 8.0564 23 8.45152 23 11.6026l-.00005.3163c-.00091 2.863-.01512 3.27255-.06915 4.46741-.05583 1.23497-.25025 2.0784-.53451 2.8164-.2939.76298-.68712 1.41003-1.32643 2.0551-.63937.64502-1.2807 1.04175-2.03692 1.33826-.73149.2868-1.56746.48295-2.7915.53928-1.142.05257-1.56024.06778-4.13305.06962h-1.21675c-2.57284-.00184-2.99107-.01705-4.13308-.06962-1.22404-.05633-2.06001-.25248-2.7915-.53928-.75622-.2965-1.39755-.69324-2.03692-1.33826C1.29083 20.61275.8976 19.9657.60376 19.20273c-.2843-.73801-.47873-1.58144-.53456-2.8164-.04631-1.02418-.06336-1.47137-.06787-3.3812v-2.80506C.00583 8.29023.0229 7.84303.0692 6.81886c.05583-1.23496.25025-2.0784.53456-2.8164.29384-.76298.68707-1.41003 1.32638-2.0551.63937-.64502 1.2807-1.04175 2.03692-1.33822.73149-.28684 1.56746-.483 2.7915-.53932C7.77368.0231 8.21692.0059 10.10988.00134zm-.79229 2.0894h-1.19569c-2.527.00166-2.92016.0155-4.04916.06747-1.12124.05158-1.73015.2406-2.13538.3995-.5368.21047-.91988.4619-1.32228.86793-.40244.40599-.65164.7925-.86026 1.33408-.1575.40884-.34484 1.02319-.39596 2.15443-.0477 1.0547-.063 1.4729-.0663 3.55298v2.27095c.0033 2.08006.0186 2.49826.0663 3.55295.05112 1.13125.23847 1.7456.39596 2.15444.20862.54158.45786.92808.86026 1.33407.4024.40604.78549.65746 1.32228.86794.40523.1589 1.01414.3479 2.13538.3995 1.04525.04811 1.45967.06355 3.52149.06689h2.25103c2.0618-.00334 2.47624-.01878 3.52146-.0669 1.12124-.05158 1.73015-.2406 2.13538-.3995.5368-.21047.91988-.4619 1.32228-.86793.40244-.40599.65164-.7925.86026-1.33407.1575-.40885.34484-1.0232.39596-2.15444.05533-1.22344.06706-1.59042.06706-4.68842l-.00004-.31089c-.00082-2.81347-.0136-3.19631-.06702-4.37757-.05112-1.13124-.23847-1.7456-.39596-2.15443-.20862-.54158-.45782-.9281-.86026-1.33408-.4024-.40603-.78549-.65746-1.32228-.86794-.40523-.15889-1.01414-.3479-2.13538-.39949-1.129-.05197-1.52216-.06581-4.04913-.06748zm-.59784 3.55377c3.26146 0 5.90538 2.6675 5.90538 5.9581 0 3.29056-2.64392 5.95806-5.90538 5.95806-3.2615 0-5.90542-2.6675-5.90542-5.95806 0-3.2906 2.64392-5.9581 5.90542-5.9581zm6.1387-1.62773c.76216 0 1.38002.62337 1.38002 1.39233 0 .76896-.61786 1.3923-1.38002 1.3923-.76212 0-1.37998-.62334-1.37998-1.3923 0-.76896.61786-1.39233 1.37998-1.39233z"></path></svg>
