<svg xmlns="http://www.w3.org/2000/svg" width="145" height="42" viewBox="0 0 145 42" aria-hidden="true" focusable="false"><path fill="currentColor" d="M32.5,34c1.8-.8,3.3-2.5,3.8-3.6,0,.8.4,1.8,1.2,2.2,1.4.8,1.7.3,1.6-.2,0-.5,0-4.5.3-6.5,0-1.1.9-2.2,0-2.8-.5-.5-2.1-.7-2.6,0-1.1,1.7-4.1,8.8-5.2,8.4-1.3-.6-.7-5.2,2.2-8.7.6-.7,1.2-1.3.3-2-2.7-2-4,.4-4.7,2.2-.7,1.8-1.2,3.6-1.3,6.4,0,3.9,2.5,5.2,4.2,4.5h.1Z"></path><path fill="currentColor" d="M51.8,36h0c-1.2,0-2.7,1.3-5.7,2.1-5.1,1.4-11.3,2.1-18.8-.2-2.9-.9-6.5-2.6-7.6-3.6.7-.7,3.2-3.1,6.2-9,2.4-4.7,3.1-6.8,3.2-10.5,0-2.5-.4-5.9-1.2-8C26.5,3.2,22.9.2,18.3.3,9.7.3,5.6,6.9,2,15c-1.1,2.9-3.4,9.5-.6,14.6.5.8,1.7.4,2.6-.5,2.1-2,.3-1,0-5.5-.2-4.5,1.1-10.4,4.8-15.5,3.4-4.7,7.8-6.7,12.6-4.1,2.7,1.5,3.6,5,3.8,8.2.3,4.5-.7,8.6-4.5,14.6-1.3,2-2.9,4.2-4.1,5.1-1.2-.7-3.1-2.3-5-2.8-2.5-.6-5.3-.2-6.4,2.1-.8,2-.4,3.4.2,4.2,1.4,1.9,3.3,2.4,5.6,2.4s4.4-.9,5.4-1.4c9.4,5.9,19.3,6.6,32.1,2.8,1.7-.5,3.1-1.4,3.6-2.1.7-1,.7-1.4-.4-1.2h0ZM10.6,35.4c-1.4.2-4.1.4-4.1-2.1s6.2.2,7.1,1.1c0,0-1.3.9-3,1.1h0Z"></path><path fill="currentColor" d="M102.3,36.2h0c-.8.7-2.3,1.6-3.9,1.8-3.2.6-7-2.1-6.6-9.4,0-2.1.3-4.1.6-6.1,2.1-2,4.4-4.4,6.3-6.8,1.6-1.9,2.5-3,3.4-5.4,1.1-2.8,1.1-5.3.3-7.2-.4-.9-1.1-1.3-1.8-1.5-2.1-.9-5,.9-7.2,6.2-2,5-3.2,9.6-4.1,15.2-.7.7-1.4,1.5-2.1,2.2-.4.5-.9.9-.9,1.1,0,.5,1.2.5,2.6-.7,0,.4,0,.8-.2,1.3-.8,6.9,1.1,13.4,8.4,12.7,5-.5,6.8-1.9,7.2-3.7.2-1.1.5-1.8-2,.2h0ZM99,2.7c2.3-1.5,1.3,4.5,0,7.1-1.7,3.6-3.8,6.5-6,9.1,1.7-8.6,4.7-15.4,5.9-16.2h0Z"></path><path fill="currentColor" d="M143.5,14.2c1.3-3.1,1.5-5.8,1.5-7.3.1-4.1-1.9-4.8-2.9-4.8h0c-2.1,0-3.6,2.8-4.3,4.6-2.2,5.7-3.3,10.8-4,15.1-.5-.5-1.2-.7-1.8-.8-2.3-.4-4.8,1.2-6.3,4-.4.6-.6,1.3-.8,2-.5,1.3-.9,2.2-1.6,3.2-.3.4-1.6,2-2.5,1.9-.9,0-.6-1.9,0-3.6.5-1.7,1.8-3.7.5-5.7-1.3-1.9-3.9-1.5-5.5.1-.3.3-.5.6-.8.9,0-1.6-.3-1.7-1.5-1.7s-1.6,0-2.2,4.4c-.4,2.7-1.4,5.7-2.7,4.9-.6-.4-1.7-1.8-1.2-4.9.4-2.7.9-3.1,0-3.5-1.5-.5-2.1-.6-2.8.9-.9,1.9-1.5,3.2-2.7,4.9-1.9,2.6-4.2,3.3-3.8.9.5-2.5,2.1-5.4,4.1-7.6,3.3-3.5,2.4-.6,4.5-.9.7-.1,1-.7.7-1.3-.8-.9-2.2-1.3-4-.9-4,.9-7.2,6.5-8,9.7-.5,2.1,0,3.3,1,4.1,1.4,1.3,4.2,1.6,6.5-.2.5-.4,1.4-1.5,1.8-2,.2-.2.5-.6.5-.6,0,0,.7,1.7,2.8,2.6,2.7,1.1,3.9,1.2,5.4-1.1.6-1,1.1-2.1,1.4-3.3.9-2.5,2.2-3.2,3.1-3.6,3.2-1.4-.2,4.4.4,7.1.3,1.6,3.5,3.9,7-.2,0,0,.2-.2.3-.3.2.3.4.6.6.8,3.3,2.8,5.3.6,7.5-1.8,0,0,.2-.2.3-.3.5,3.6,2.1,6.8,5.1,7.3.5,0,1.2,0,1.1-.6,0-.3-.3-.5-.7-1.2-.8-1.5-2.1-3.2-2.1-9.3v-.8c2.4-3.4,5.1-7.9,6.7-11.5l-.5.4ZM140.9,6.2c1.3-3.2,2.1-2.2,1.9-.3h0c-.4,3.5-1.4,7.2-3.5,11.3-.5,1-1.3,2.4-2.2,3.8.6-6.2,2.3-10.9,3.8-14.8ZM133.4,24.7c0,.6-.1,1.3-.2,2-1.9,2.6-3.7,4.7-4.7,4.9h0c-1.7.5-1.2-2.7-.7-3.9,1.5-3.7,2.9-4.2,3.5-4.7.6-.4,1.7-.4,2.3.2,0,.5-.1,1-.2,1.5h0Z"></path><path fill="currentColor" d="M85,28c-1-1-2.2-2-3.2-3.1,0,0,0-.1,0-.2.5-.7,2.4-3.2,2.3-4.7,0-1-.9-1.4-1.7-1.6-1.6-.3-4,1.2-4.9,2.1-1,1-1,2.4,0,3.5.5.5,1,1.1,1.5,1.7-1.8,2.6-4.5,6.2-5.5,6.6-.8.3-.4-2.3.3-4.4.7-2.2,0-3.5-1.8-4.5s-3.5-.3-4.7.7c-.3.2-.6.7-.6.7,0,0,.4-1.3-.2-1.8-1.9-1.4-2.5-.9-2.8,1.2v.3c-.6,2.5-1.5,4.2-3.3,6-1.2,1.2-2.3,2.3-3.6,2-.5,0-1-.7-1.3-1.4h0c1.7-1.6,4.2-3.3,5.2-5.2,2.5-4.7-5.6-6.7-8.1-3.2-1.3,1.4-1.7,3.3-1.5,5.1,0,1,.5,2.1,1.1,3-.5.4-1,.7-1.4,1-1.5,1-3.7,2.9-5.9,0-.8-1.1-1.3-2.7-1.2-4.5l.4.2c.7.2,1.4.1,1.8,0,2-1,4.7-3.9,4.8-5.8.2-2.6-2.7-3.3-5.2-2.8-.9.2-2.5.6-3.8,2.9-1.5,2.8-1.6,6.6-.8,9.1s3.3,4.3,6.5,4c1.2,0,4.1-1.4,6.2-2.6.8.7,1.8,1.2,2.8,1.4,1.8.4,3.5-.4,4.8-1.6.5-.4,1.1-1.2,1.7-2,0,.6,0,1.2,0,1.6,0,1.1.6,1.3,1.3,1.3s1.2.2,1.2-.2c.4-1.8.5-3.1,1.3-4.7,1.2-2.4,3.6-3.8,4-3,.3.5,0,1.5-.5,3.3-.9,2.9-1.3,6.1,2.8,5.8,2.1,0,3.6-2.8,4.8-4.4.7-1,1.5-2,2.2-2.9h0c1,1,3.2,2.9,3.2,4.4s-1.1,2.8-3.4,1.9c-.7-.3-1.2-.8-1.8-1.7-.3-.5-.7.5-.5,1.1,0,.6.6,1.3,1.3,2.2,1.5,1.6,6.4,2.3,7.5-1.4.7-2.2.2-3.9-1.6-5.6h0l.3.2ZM44.9,23.5c2.9-6.6,6.9,0-.5,2.8,0,0-.3.1-.4.2,0-1,.4-2.1.9-3.1h0ZM54.9,29.1c0-.3,0-.5-.2-.7-.3-1.2,0-2.3.5-3.3.9-1.9,2.3-2.6,3-2,1.4,1.3-1.5,4.1-2.2,4.8-.3.4-.7.7-1.2,1.2h.1ZM80.6,23.3v.2c-.5-.6-.8-1.1-.8-1.5h0c-.2-1.1,2.7-2.1,2.7-1.5s-.7,1.3-1.7,2.9h-.2Z"></path></svg>
