<svg xmlns="http://www.w3.org/2000/svg" viewBox="0 0 40 40" width="23" height="23"><path fill="currentColor" d="M40 7.3c-1.5.7-3.1 1.1-4.7 1.3 1.7-1 3-2.6 3.6-4.5-1.6.9-3.3 1.6-5.2 2-1.5-1.6-3.6-2.6-6-2.6-4.5 0-8.2 3.7-8.2 8.2 0 .6.1 1.3.2 1.9C12.9 13.2 6.8 10 2.8 5c-.7 1.2-1.1 2.6-1.1 4.1 0 2.8 1.4 5.4 3.7 6.8-1.3 0-2.6-.4-3.7-1v.1c0 4 2.8 7.3 6.6 8-.7.2-1.4.3-2.2.3-.5 0-1-.1-1.5-.1 1 3.3 4.1 5.6 7.7 5.7-3 2.2-6.5 3.5-10.3 3.5-.7 0-1.3 0-2-.1C3.6 34.6 7.9 36 12.6 36c15.1 0 23.3-12.5 23.3-23.3v-1.1c1.6-1.2 3-2.6 4.1-4.3"></path></svg>
